<svg xmlns="http://www.w3.org/2000/svg" viewBox="0 0 400 400" enable-background="new 0 0 400 400"><g><linearGradient id="a" gradientUnits="userSpaceOnUse" x1="199.694" y1="351.867" x2="199.694" y2="150.409"><stop offset=".117" stop-color="#F4F3E3"/><stop offset="1" stop-color="#C6C4C2"/></linearGradient><path fill="url(#a)" d="M199.7 351.9c-8 0-8-8.6-8.1-14.9 0-4.2-.1-8.6-2-8.9h-.2c-2 0-4.1 4.1-5.8 7.4-2.3 4.5-4.5 8.7-8.2 8.7-.3 0-.6 0-.9-.1-4.4-.9-4.2-6.4-4.1-11.2.1-3.3.2-7.5-1.4-7.9h-.1c-1.2 0-3.3 3.9-4.5 6.2-2.1 3.9-4 7.5-7.1 7.5-.3 0-.7 0-1-.1-4.4-1.2-3.5-7.1-2.7-12.3.4-2.9 1.2-7.8 0-8.4-1.2-.4-3.7 4.7-5.1 7-2.7 4.6-4.8 8.2-7.5 8.2-.3 0-.6 0-.8-.1-3.5-.9-2.6-6-1.5-11.8.4-2.4 1.5-6.8.8-7.5-.8-.6-3.1 2.4-4.5 4-2.2 2.5-4.3 4.8-6.7 4.8-.5 0-1.1-.1-1.5-.3-1.6-.7-2.2-1.9-2.5-2.7-.9-3 1.5-7 4.1-11.1 2.1-3.3 4.8-7.8 3.6-9-.6-.4-2.3.7-3.6 1.3-1.8.8-3.5 1.6-5 1.6-.8 0-1.5-.2-2-.6-1-.7-1.6-1.6-1.7-2.8-.4-3 2.5-6.4 5.5-10 2-2.4 4.8-5.8 4.6-7.1 0 0 0-.1-.1-.2-.6-.7-2.1.8-3.2 1.4-1.8.9-3.4 1.7-4.9 1.7-.7 0-1.3-.2-1.8-.5-1-.7-1.6-1.6-1.8-2.7-.4-2.9 2.4-6.4 5.4-10.1 1.9-2.3 5.3-6.9 4.6-7.6s-7.6 1.3-8.9 1.3c-1.1 0-1.9-.3-2.5-.8-.7-.6-1.1-1.5-1.1-2.4 0-2.6 2.8-5.2 6-8.3 1.6-1.5 4.9-4.4 4.7-5.2-.2-.8-5 .7-6.1.7-.7 0-1.8-.1-2.5-.8-.8-.7-1.2-1.7-1.1-2.7.1-3 4.1-6 8.7-9.5 2.5-1.9 7.2-5.3 6.9-6.2-.2-.8-8.1 1.8-9.5 1.8-1.2 0-2.1-.3-2.8-1-.7-.7-1-1.6-.9-2.5.2-2.4 3.2-4.4 6.7-6.8 1.7-1.1 5.3-3.4 5.3-4.2-.1-.6-1.7-.6-2.5-.8-1.7-.4-3.5-.8-4.6-2.2-.7-.8-.9-1.9-.8-3.1.6-4.6 10.1-8.2 12.5-10.1 1.3-10.1 7.6-33.8 10-44.7l-1.2-5.7 1.2 4.9c11-4.7 16.1.5 25.5-3.7l.3-.2h57.1l.3.2c9.4 4.3 14.5-1 25.5 3.7l1.2-4.9-1.2 5.7c2.4 10.9 8.9 34.7 10.2 44.8 2.4 1.8 11.6 5.4 12.2 10 .2 1.2-.1 2.2-.8 3.1-1.1 1.4-2.9 1.8-4.6 2.2-.8.2-2.5.2-2.5.8 0 .8 3.6 3.1 5.3 4.2 3.5 2.4 6.5 4.4 6.7 6.8.1.9-.2 1.8-.9 2.5s-1.6 1-2.8 1c-1.5 0-9.3-2.5-9.5-1.8-.3.9 4.4 4.4 6.9 6.2 4.6 3.5 8.6 6.5 8.7 9.5.1 1-.3 2-1.1 2.7-.8.7-1.8.8-2.5.8-1.1 0-5.9-1.5-6.1-.7-.1.8 3.1 3.7 4.7 5.2 3.2 3.1 6.1 5.7 6 8.3 0 .9-.4 1.8-1.1 2.4-.6.5-1.4.8-2.5.8-1.3 0-8.2-2-8.9-1.3-.7.7 2.7 5.3 4.6 7.6 3 3.7 5.8 7.2 5.4 10.1-.2 1.1-.8 2.1-1.8 2.7-.5.3-1.1.5-1.8.5-1.5 0-3.1-.8-4.9-1.7-1.1-.6-2.6-2-3.2-1.4-.1.1-.1.1-.1.2-.2 1.4 2.6 4.7 4.6 7.1 3 3.6 5.9 7.1 5.5 10-.1 1.1-.7 2.1-1.7 2.8-.5.4-1.2.6-2 .6-1.5 0-3.2-.8-5-1.6-1.2-.6-3-1.7-3.6-1.3-1.3 1.1 1.5 5.7 3.6 9 2.6 4.2 5 8.1 4.1 11.1-.2.8-.9 2-2.5 2.7-.4.2-1 .3-1.5.3-2.4 0-4.5-2.3-6.7-4.8-1.4-1.5-3.7-4.5-4.5-4-.7.7.4 5.1.8 7.5 1.1 5.8 2 10.9-1.5 11.8-.2.1-.5.1-.8.1-2.8 0-4.9-3.6-7.5-8.2-1.4-2.3-3.8-7.4-5.1-7-1.2.6-.5 5.5 0 8.4.8 5.2 1.7 11.2-2.7 12.3-.3.1-.6.1-1 .1-3 0-5-3.7-7.1-7.5-1.2-2.3-3.3-6.2-4.5-6.2h-.1c-1.5.4-1.4 4.5-1.4 7.9.1 4.8.3 10.3-4.1 11.2-.3.1-.6.1-.9.1-3.7 0-5.9-4.2-8.2-8.7-1.7-3.3-3.8-7.4-5.8-7.4h-.2c-2 .3-2 4.7-2 8.9-.3 6.3-.3 14.9-8.3 14.9z"/><defs><filter id="b" filterUnits="userSpaceOnUse" x="116.4" y="152.4" width="166.7" height="198.5"><feColorMatrix values="-1 0 0 0 1 0 -1 0 0 1 0 0 -1 0 1 0 0 0 1 0" color-interpolation-filters="sRGB" result="source"/></filter></defs><mask maskUnits="userSpaceOnUse" x="116.4" y="152.4" width="166.7" height="198.5" id="d"><g filter="url(#b)"><linearGradient id="c" gradientUnits="userSpaceOnUse" x1="195.579" y1="354.345" x2="195.579" y2="238.549"><stop offset="0" stop-color="#231F20"/><stop offset="1" stop-color="#fff"/></linearGradient><path fill="url(#c)" d="M105.9 238.5h179.3v115.8h-179.3z"/></g></mask><path opacity=".7" mask="url(#d)" stroke="#C6C4C2" stroke-width="1.941" stroke-miterlimit="10" d="M199.7 349.9c-5.6 0-6.1-5.6-6.2-12.9 0-5.3-.1-10.3-3.7-10.8h-.5c-3.2 0-5.4 4.3-7.6 8.5-2 3.9-3.9 7.7-6.5 7.7-.2 0-.4 0-.5-.1-2.6-.5-2.7-4.2-2.6-9.3.1-4.7.2-9.1-2.8-9.8-.2 0-.4-.1-.5-.1-2.1 0-3.6 2.2-6.2 7.2-1.7 3.2-3.5 6.5-5.4 6.5-.2 0-.3 0-.4-.1-2.6-.7-2.2-4.8-1.4-10.2.9-5.6 1.2-9.3-1.1-10.4l-.1-.1h-.1c-.2-.1-.5-.1-.7-.1-2 0-3.3 2-5.8 6.5-.3.5-.6 1-.8 1.4-2.1 3.6-4.2 7.2-5.9 7.2h-.2c-1.8-.5-1-5.1-.2-9.6.1-.4.2-1 .3-1.5.9-4.6 1.2-6.6-.1-7.7l-.1-.1-.1-.1c-.4-.3-.9-.5-1.4-.5-1.6 0-2.9 1.5-5 3.8-.3.3-.5.6-.7.8-1.8 2-3.7 4.2-5.3 4.2-.2 0-.5-.1-.6-.1-.8-.4-1.3-.9-1.5-1.5-.7-2.2 1.7-5.9 3.9-9.6 2.9-4.7 5.7-9.2 3.2-11.4l-.6-.6h-.4l-.6-.1c-1 0-2.1.6-3.1 1.1l-.9.5c-1.6.7-3.1 1.4-4.2 1.4-.2 0-.6 0-.8-.2-.6-.4-.9-.9-.9-1.5-.3-2.1 2.4-5.4 5-8.5 3.2-3.9 5.3-6.6 5.1-8.6 0-.4-.2-.8-.5-1.2-.5-.6-1.1-.9-1.9-.9-1.1 0-2 .6-2.9 1.2-.3.2-.6.4-.8.5-1.5.8-3 1.5-4 1.5-.2 0-.5 0-.7-.2-.6-.4-.9-.9-1-1.4-.3-2.1 2.4-5.4 5-8.6 6-7.4 5.5-9.1 4.5-10.2-.6-.7-1.5-.8-2.1-.8-1.3 0-3.5.5-5.5.9-1 .2-2.3.5-2.7.5-.6 0-1-.1-1.2-.3-.3-.3-.5-.6-.5-1 0-1.7 2.7-4.3 5.4-6.8l.7-.7c3.5-3.3 4.8-4.7 4.6-6.3v-.2c-.1-.4-.6-1.7-2.5-1.7-1 0-2.3.3-3.6.6-.6.1-1.5.3-1.8.3-.3 0-1 0-1.2-.3-.4-.4-.6-.7-.5-1.2.1-2.1 4.1-5.1 7.9-8l.5-.4c6.2-4.7 7.7-6.1 7.1-8-.1-.4-.6-1.5-2.3-1.5-1.1 0-2.9.4-5.6 1.1-1.3.3-3 .8-3.5.8-1 0-1.3-.3-1.4-.4-.3-.3-.4-.6-.4-.9.1-1.5 3.1-3.4 5.9-5.4l.7-.5c4-2.7 5.5-3.8 5.4-5.4-.2-2.1-2.3-2.4-3.4-2.5l-.6-.1c-1.5-.3-2.9-.6-3.5-1.5-.3-.4-.5-1-.4-1.6.3-2.4 5.6-5.3 8.4-6.8 1.4-.8 2.6-1.4 3.3-2l.6-.5.1-.8c.9-6.7 4-19.5 6.7-30.7 1.3-5.2 2.5-10.1 3.2-13.7 3.5-1.3 6.3-1.5 8.5-1.5 1.1 0 2.2.1 3.2.1 1.1.1 2.1.1 3.2.1 2.4 0 5.6-.2 9.5-2h56.2c3.9 1.8 7.1 2 9.5 2 1.1 0 2.2-.1 3.2-.1 1-.1 2.1-.1 3.2-.1 2.2 0 5 .2 8.5 1.5.8 3.8 2.1 9.1 3.5 14.6 2.7 10.9 5.8 23.4 6.6 29.9l.1.8.6.5c.7.6 1.8 1.2 3.2 1.9 3 1.6 7.9 4.4 8.3 6.8.1.6 0 1.2-.4 1.6-.7.8-2 1.1-3.5 1.5l-.6.1c-1.1.2-3.3.4-3.4 2.4-.1 1.7 1.4 2.9 5.4 5.5l.7.5c2.8 1.9 5.8 3.9 5.9 5.4 0 .3-.1.6-.4.9-.1.1-.4.4-1.4.4-.4 0-2.2-.5-3.5-.8-2.7-.7-4.5-1.1-5.6-1.1-1.7 0-2.2 1.1-2.3 1.5-.6 1.9.9 3.3 7.1 8l.5.3c3.9 2.9 7.8 5.9 7.9 8 0 .5-.1.9-.5 1.2-.3.3-.9.3-1.3.3-.2 0-1.2-.2-1.8-.3-1.3-.3-2.7-.6-3.6-.6-2 0-2.4 1.3-2.5 1.7v.1c-.3 1.6 1 3 4.6 6.3l.7.7c2.7 2.5 5.4 5.1 5.4 6.8 0 .4-.2.7-.5 1-.2.2-.6.3-1.2.3-.3 0-1.7-.3-2.7-.5-2.1-.5-4.2-.9-5.5-.9-.6 0-1.5.1-2.1.8-1 1.1-1.5 2.8 4.5 10.2 2.6 3.2 5.3 6.5 5 8.6-.1.6-.4 1.1-.9 1.4-.2.1-.4.2-.7.2-1 0-2.5-.8-4-1.5-.2-.1-.5-.3-.8-.5-.9-.6-1.8-1.2-2.9-1.2-.7 0-1.4.3-1.9.9-.3.4-.5.8-.5 1.2-.2 2 1.8 4.7 5.1 8.6 2.6 3.2 5.3 6.4 5 8.5-.1.6-.4 1.1-.9 1.4-.3.2-.6.2-.9.2-1.1 0-2.6-.7-4.1-1.4-.3-.1-.6-.3-.9-.5-1.1-.6-2.1-1.1-3.1-1.1-.2 0-.4 0-.6.1h-.4l-.6.6c-2.5 2.2.2 6.7 3.2 11.4 2.2 3.6 4.6 7.4 3.9 9.6-.2.7-.7 1.2-1.4 1.5-.2.1-.5.2-.7.2-1.5 0-3.4-2.1-5.3-4.2-.2-.2-.5-.5-.7-.9-2-2.4-3.4-3.8-5-3.8-.5 0-1 .2-1.4.5l-.1.1-.1.1c-1.2 1.2-1 3.1-.1 7.7.1.5.2 1.1.3 1.5.8 4.5 1.6 9.1-.1 9.6h-.3c-1.6 0-3.8-3.7-5.8-7.2-.2-.4-.5-.9-.8-1.5-2.5-4.6-3.8-6.6-5.8-6.6-.3 0-.5 0-.7.1h-.1l-.1.1c-2.3 1.2-1.9 4.9-1.1 10.4.8 5.4 1.2 9.5-1.3 10.2l-.5.1c-1.9 0-3.6-3.3-5.4-6.5-2.7-5-4.2-7.2-6.2-7.2h-.5c-3.1.7-3 5.1-2.9 9.8.1 5.1 0 8.7-2.6 9.3l-.6.1c-2.5 0-4.4-3.7-6.5-7.7-2.1-4.2-4.4-8.5-7.6-8.5h-.5c-3.7.5-3.7 5.6-3.7 10.8 0 12.6-2.6 13.5-6.1 13.5z" fill="none"/><path fill="#E6E7E8" d="M267.4 175.6c-.1 2.8-4 5.1-8.9 5-4.8-.1-8.7-2.5-8.7-5.3s4.2-5.1 9.1-5c4.9.1 8.5 2.4 8.5 5.3zM132 175.5c.1 2.8 4 5.1 8.9 5 4.8-.1 8.7-2.5 8.7-5.3-.1-2.8-4.2-5.1-9.1-5s-8.5 2.5-8.5 5.3z"/><linearGradient id="e" gradientUnits="userSpaceOnUse" x1="103.92" y1="244.124" x2="200.874" y2="244.124"><stop offset="0" stop-color="#9C9996"/><stop offset="1" stop-color="#3D3E39"/></linearGradient><path fill="url(#e)" d="M200 248.9v-3.4h-7.7l-2.9-5.9-73.7 5.9h-1.4c-4-.3-7-3.3-7-6.9 0-3.8 3.5-6.9 7.8-6.9.8 0 .9-1.9-.1-1.9-6 0-11 4.9-11 11 0 6 4.9 10.9 10.9 11h39.7c12.8 4.8 46.1 11.5 46.3 2.8.1-3.5-.4-5.1-.9-5.7z"/><linearGradient id="f" gradientUnits="userSpaceOnUse" x1="199.126" y1="244.124" x2="296.08" y2="244.124"><stop offset="0" stop-color="#3D3E39"/><stop offset="1" stop-color="#9C9996"/></linearGradient><path fill="url(#f)" d="M200 248.9v-3.4h7.7l2.9-5.9 73.7 5.9h1.4c4-.3 7-3.3 7-6.9 0-3.8-3.5-6.9-7.8-6.9-.8 0-.9-1.9.1-1.9 6 0 11 4.9 11 11 0 6-4.9 10.9-10.9 11h-39.7c-12.8 4.8-46.1 11.5-46.3 2.8-.1-3.5.4-5.1.9-5.7z"/><path opacity=".15" fill="#3D3E39" d="M210.6 239.5l-2.9 5.9h-15.4l-2.9-5.9-11.4.9c1.2 1.9 3.5 2.9 5.8 2.5l2.4-.4c3.3 5.4 8.4 12.3 13.6 12.3 5.2 0 10.3-6.9 13.6-12.3.8.1 1.6.2 2.4.4 2.3.4 4.6-.7 5.8-2.6l-11-.8z"/><linearGradient id="g" gradientUnits="userSpaceOnUse" x1="200" y1="147.788" x2="200" y2="48.133"><stop offset="0" stop-color="#C6C4C2"/><stop offset=".734" stop-color="#F4F3E3"/></linearGradient><path fill="url(#g)" d="M200 48.1c-8 0-8 8.6-8.1 14.9 0 4.2-.1 8.6-2 8.9h-.2c-2 0-4.1-4.1-5.8-7.4-2.3-4.5-4.5-8.7-8.2-8.7-.3 0-.6 0-.9.1-4.4.9-4.2 6.4-4.1 11.2.1 3.3.2 7.5-1.4 7.9h-.1c-1.2 0-3.3-3.9-4.5-6.2-2.1-3.9-4-7.5-7.1-7.5-.3 0-.7 0-1 .1-4.4 1.2-3.5 7.1-2.7 12.3.4 2.9 1.2 7.8 0 8.4-1.2.4-3.7-4.7-5.1-7-2.7-4.6-4.8-8.2-7.5-8.2-.3 0-.6 0-.8.1-3.5.9-2.6 6-1.5 11.8.4 2.4 1.5 6.8.8 7.5-.8.6-3.1-2.4-4.5-4-2.2-2.5-4.3-4.8-6.7-4.8-.5 0-1.1.1-1.5.3-1.6.7-2.2 1.9-2.5 2.7-.9 3 1.5 7 4.1 11.1 2.1 3.3 4.8 7.8 3.6 9-.6.4-2.3-.7-3.6-1.3-1.8-.8-3.5-1.6-5-1.6-.8 0-1.5.2-2 .6-1 .7-1.6 1.6-1.7 2.8-.4 3 2.5 6.4 5.5 10 2 2.4 4.8 5.8 4.6 7.1 0 0 0 .1-.1.2-.6.7-2.1-.8-3.2-1.4-1.8-.9-3.4-1.7-4.9-1.7-.7 0-1.3.2-1.8.5-1 .7-1.6 1.6-1.8 2.7-.4 2.9 8.9 13.7 11.9 18.1 3.1 4.4 3.7 5.4 3.9 5.4l65.4 5.6h1l65.4-5.6c.2 0 .2-.9 3.3-5.4 3.1-4.4 13-15.2 12.5-18.1-.2-1.1-.8-2.1-1.8-2.7-.5-.3-1.1-.5-1.8-.5-1.5 0-3.1.8-4.9 1.7-1.1.6-2.6 2-3.2 1.4-.1-.1-.1-.1-.1-.2-.2-1.4 2.6-4.7 4.6-7.1 3-3.6 5.9-7.1 5.5-10-.1-1.1-.7-2.1-1.7-2.8-.5-.4-1.2-.6-2-.6-1.5 0-3.2.8-5 1.6-1.2.6-3 1.7-3.6 1.3-1.3-1.1 1.5-5.7 3.6-9 2.6-4.2 5-8.1 4.1-11.1-.2-.8-.9-2-2.5-2.7-.4-.2-1-.3-1.5-.3-2.4 0-4.5 2.3-6.7 4.8-1.4 1.5-3.7 4.5-4.5 4-.7-.7.4-5.1.8-7.5 1.1-5.8 2-10.9-1.5-11.8-.2-.1-.5-.1-.8-.1-2.8 0-4.9 3.6-7.5 8.2-1.4 2.3-3.8 7.4-5.1 7-1.2-.6-.5-5.5 0-8.4.8-5.2 1.7-11.2-2.7-12.3-.3-.1-.6-.1-1-.1-3 0-5 3.7-7.1 7.5-1.2 2.3-3.3 6.2-4.5 6.2h-.1c-1.5-.4-1.4-4.5-1.4-7.9.1-4.8.3-10.3-4.1-11.2-.3-.1-.6-.1-.9-.1-3.7 0-5.9 4.2-8.2 8.7-1.7 3.3-3.8 7.4-5.8 7.4h-.2c-2-.3-2-4.7-2-8.9-.1-6.3-.1-14.9-8.1-14.9z"/><defs><filter id="h" filterUnits="userSpaceOnUse" x="119.2" y="49.1" width="161.6" height="97.7"><feColorMatrix values="-1 0 0 0 1 0 -1 0 0 1 0 0 -1 0 1 0 0 0 1 0" color-interpolation-filters="sRGB" result="source"/></filter></defs><mask maskUnits="userSpaceOnUse" x="119.2" y="49.1" width="161.6" height="97.7" id="j"><g filter="url(#h)"><linearGradient id="i" gradientUnits="userSpaceOnUse" x1="197.153" y1="126.068" x2="197.153" y2="44.072"><stop offset="0" stop-color="#fff"/><stop offset="1" stop-color="#231F20"/></linearGradient><path fill="url(#i)" d="M109.1 44.1h176.1v82h-176.1z"/></g></mask><path opacity=".7" mask="url(#j)" stroke="#C6C4C2" stroke-width="1.941" stroke-miterlimit="10" d="M199.6 145.8l-64.6-5.5c-.6-.8-1.8-2.6-3.2-4.6-.8-1.2-2.1-2.8-3.5-4.7-2.6-3.3-8-10.3-8-12.1.1-.5.4-1 .9-1.3.2-.2.5-.2.7-.2 1 0 2.5.8 4 1.5.2.1.5.3.8.5.9.6 1.8 1.2 2.9 1.2.7 0 1.4-.3 1.9-.9.3-.4.5-.8.5-1.2.2-1.8-1.4-4.1-5.1-8.6-2.6-3.2-5.3-6.4-5-8.5.1-.6.4-1.1.9-1.4.3-.2.6-.2.9-.2 1.1 0 2.6.7 4.1 1.4.3.1.6.3.9.5 1.1.6 2.1 1.1 3.1 1.1.2 0 .4 0 .6-.1h.4l.6-.6c2.5-2.2-.3-6.7-3.2-11.4-2.2-3.6-4.6-7.4-3.9-9.6.2-.7.7-1.2 1.4-1.5.2-.1.5-.2.7-.2 1.5 0 3.4 2.1 5.3 4.2.2.2.5.5.7.8 2 2.4 3.4 3.8 5 3.8.5 0 1-.2 1.4-.5l.1-.1.1-.1c1.2-1.2 1-3.1.1-7.7-.1-.5-.2-1.1-.3-1.5-.8-4.5-1.6-9.1.1-9.6h.3c1.6 0 3.8 3.7 5.8 7.2.2.4.5.9.8 1.5 2.5 4.6 3.8 6.5 5.8 6.5.3 0 .5 0 .7-.1h.1l.1-.1c2.3-1.2 1.9-4.9 1.1-10.4-.8-5.4-1.2-9.5 1.3-10.2l.5-.1c1.9 0 3.6 3.3 5.4 6.5 2.6 5 4.2 7.2 6.2 7.2h.5c3.1-.7 3-5.1 2.9-9.8-.1-5.1 0-8.7 2.6-9.3l.6-.1c2.5 0 4.4 3.7 6.5 7.7 2.1 4.2 4.4 8.5 7.6 8.5h.5c3.6-.5 3.7-5.5 3.7-10.8.1-10.9 2.1-13 6.1-13h.1c5.1 0 6 4.4 6.1 12.9 0 5.3.1 10.3 3.7 10.8h.5c3.2 0 5.4-4.3 7.6-8.5 2-3.9 3.9-7.7 6.5-7.7.2 0 .4 0 .5.1 2.6.5 2.7 4.2 2.6 9.3-.1 4.7-.2 9.1 2.8 9.8.2 0 .4.1.5.1 2.1 0 3.6-2.2 6.2-7.2 1.7-3.2 3.5-6.5 5.4-6.5.2 0 .3 0 .4.1 2.6.7 2.2 4.8 1.4 10.2-.9 5.6-1.2 9.3 1.1 10.4l.1.1h.1c.2.1.5.1.7.1 2 0 3.3-2 5.8-6.6.3-.5.6-1 .8-1.4 2.1-3.6 4.2-7.2 5.9-7.2h.2c1.8.5 1 5.1.2 9.6-.1.4-.2 1-.3 1.5-.9 4.6-1.2 6.6.1 7.7l.1.1.1.1c.4.3.9.5 1.4.5 1.6 0 2.9-1.5 4.9-3.8.3-.3.5-.6.7-.9 1.8-2 3.7-4.2 5.3-4.2.2 0 .5.1.6.1.8.4 1.3.9 1.5 1.5.7 2.2-1.7 5.9-3.9 9.6-2.9 4.7-5.7 9.2-3.2 11.4l.6.6h.4l.6.1c1 0 2.1-.5 3.1-1.1l.9-.5c1.6-.7 3.1-1.4 4.2-1.4.2 0 .6 0 .8.2.6.4.9.9.9 1.5.3 2.1-2.4 5.4-5 8.5-3.2 3.9-5.3 6.6-5.1 8.6 0 .4.2.8.5 1.2.5.6 1.1.9 1.9.9 1.1 0 2-.6 2.9-1.2.3-.2.6-.4.8-.5 1.5-.8 3-1.5 4-1.5.3 0 .5.1.7.2.6.4.9.9 1 1.4-.1 1.6-5.2 7.9-8 11.3-1.8 2.2-3.3 4-4.2 5.4-1.7 2.4-2.5 3.8-2.9 4.6l-64.3 5.5h-.7z" fill="none"/><path fill="#E8BD83" d="M254.1 166.2s-31.1 80.6-54.4 80.6l-54.4-80.6 52.6-15.7 56.2 15.7z"/><linearGradient id="k" gradientUnits="userSpaceOnUse" x1="199.734" y1="253.121" x2="199.734" y2="160.752"><stop offset=".101" stop-color="#CA6C4A"/><stop offset=".505" stop-color="#E8BD83"/></linearGradient><path fill="url(#k)" d="M217.7 230.5c-1.4-.3-2.8-.5-4.2-.7 1.3-23-.1-46.1-3-69.1h-21.4c-2.8 22.9-4.3 46.1-3 69.1-1.4.2-2.8.4-4.2.7-3.3.6-5.3 3.6-4.6 6.5.7 2.9 3.6 4.7 6.5 4.2l2.4-.4c3.3 5.4 8.4 12.3 13.6 12.3 5.2 0 10.3-6.9 13.6-12.3.8.1 1.6.2 2.4.4 2.9.5 5.8-1.3 6.5-4.2.7-2.9-1.4-5.9-4.6-6.5z"/><linearGradient id="l" gradientUnits="userSpaceOnUse" x1="199.733" y1="244.043" x2="199.733" y2="169.493"><stop offset="0" stop-color="#fff" stop-opacity=".1"/><stop offset=".641" stop-color="#E8BD83"/></linearGradient><path fill="url(#l)" d="M199.7 244c-9.5 0-5.3-52.6-2.9-74.5h5.9c2.3 21.9 6.5 74.5-3 74.5z"/><path fill="#3D3E39" d="M216.7 202.4c-10.3-5.7-22.8-5.7-33.1 0v-25.6c10.3 5.7 22.8 5.7 33.1 0v25.6z"/><path fill="#595752" d="M205.7 193c-3.7-.4-7.3-.4-11 0v-6.8c3.7.4 7.3.4 11 0v6.8z" opacity=".5"/><path fill="#BD3F27" d="M132.9 173.1h133.5c1.8-12.1 2.8-24.2 2.8-36.3h-139c0 12.1.9 24.3 2.7 36.3z"/><path opacity=".1" fill="#3D3E39" d="M269.2 136.8l1.3-1.7h-141.6l1.3 1.7zM245.4 174.9l.8-1.8h-91.9l.8 1.8z"/><g opacity=".5" fill="#FAAF40"><g opacity=".8"><path d="M136.5 152.1c.4 0 .7 0 1.1.1.8 0 1.6 0 2.4-.2.8-.2 1.6-.5 2.2-1 .5-.4.7-1 .8-1.7 0-.4 0-.8-.1-1.2-.1-.4-.2-.8-.4-1.1-.2-.3-.6-.6-.9-.7-.5-.1-.9 0-1.3.2-.6.3-1 .7-1.3 1.3-.3.6-.3 1.2-.6 1.7s-.9.8-1.4.9c-.3.1-.5.1-.7.3-.1.1-.2.3-.2.5-.4.5-.1.9.4.9zM149.8 152.1c.4 0 .7 0 1.1.1.8 0 1.6 0 2.4-.2.8-.2 1.6-.5 2.2-1 .5-.4.7-1 .8-1.7 0-.4 0-.8-.1-1.2-.1-.4-.2-.8-.4-1.1-.2-.3-.6-.6-.9-.7-.5-.1-.9 0-1.3.2-.6.3-1 .7-1.3 1.3-.3.6-.3 1.2-.6 1.7s-.9.8-1.4.9c-.3.1-.5.1-.7.3-.1.1-.2.3-.2.5-.3.5 0 .9.4.9zM243.3 152.1c.4 0 .7 0 1.1.1.8 0 1.6 0 2.4-.2.8-.2 1.6-.5 2.2-1 .5-.4.7-1 .8-1.7 0-.4 0-.8-.1-1.2-.1-.4-.2-.8-.4-1.1-.2-.3-.6-.6-.9-.7-.5-.1-.9 0-1.3.2-.6.3-1 .7-1.3 1.3-.3.6-.3 1.2-.6 1.7s-.9.8-1.4.9c-.3.1-.5.1-.7.3-.1.1-.2.3-.2.5-.4.5-.1.9.4.9zM256.6 152.1c.4 0 .7 0 1.1.1.8 0 1.6 0 2.4-.2.8-.2 1.6-.5 2.2-1 .5-.4.7-1 .8-1.7 0-.4 0-.8-.1-1.2-.1-.4-.2-.8-.4-1.1-.2-.3-.6-.6-.9-.7-.5-.1-.9 0-1.3.2-.6.3-1 .7-1.3 1.3-.3.6-.3 1.2-.6 1.7s-.9.8-1.4.9c-.3.1-.5.1-.7.3-.1.1-.2.3-.2.5-.3.5 0 .9.4.9z"/></g><g opacity=".8"><path d="M257.4 163.5c-.4 0-.7 0-1.1.1-.8 0-1.6 0-2.4-.2-.8-.2-1.6-.5-2.2-1-.5-.4-.7-1-.8-1.7 0-.4 0-.8.1-1.2.1-.4.2-.8.4-1.1.2-.3.6-.6.9-.7.5-.1.9 0 1.3.2.6.3 1 .7 1.3 1.3.3.6.3 1.2.6 1.7s.9.8 1.4.9c.3.1.5.1.7.3.1.1.2.3.2.5.3.5 0 .9-.4.9zM244.1 163.5c-.4 0-.7 0-1.1.1-.8 0-1.6 0-2.4-.2-.8-.2-1.6-.5-2.2-1-.5-.4-.7-1-.8-1.7 0-.4 0-.8.1-1.2.1-.4.2-.8.4-1.1.2-.3.6-.6.9-.7.5-.1.9 0 1.3.2.6.3 1 .7 1.3 1.3.3.6.3 1.2.6 1.7s.9.8 1.4.9c.3.1.5.1.7.3.1.1.2.3.2.5.3.5 0 .9-.4.9zM160 163.5c-.4 0-.7 0-1.1.1-.8 0-1.6 0-2.4-.2-.8-.2-1.6-.5-2.2-1-.5-.4-.7-1-.8-1.7 0-.4 0-.8.1-1.2.1-.4.2-.8.4-1.1.2-.3.6-.6.9-.7.5-.1.9 0 1.3.2.6.3 1 .7 1.3 1.3.3.6.3 1.2.6 1.7s.9.8 1.4.9c.3.1.5.1.7.3.1.1.2.3.2.5.3.5 0 .9-.4.9zM146.6 163.5c-.4 0-.7 0-1.1.1-.8 0-1.6 0-2.4-.2-.8-.2-1.6-.5-2.2-1-.5-.4-.7-1-.8-1.7 0-.4 0-.8.1-1.2.1-.4.2-.8.4-1.1.2-.3.6-.6.9-.7.5-.1.9 0 1.3.2.6.3 1 .7 1.3 1.3.3.6.3 1.2.6 1.7s.9.8 1.4.9c.3.1.5.1.7.3.1.1.2.3.2.5.3.5 0 .9-.4.9z"/></g><path opacity=".8" d="M264.9 141.8h-129.8c-.2 0-.4-.2-.4-.4s.2-.4.4-.4h129.8c.2 0 .4.2.4.4s-.2.4-.4.4zM264.9 168.9h-129.8c-.2 0-.4-.2-.4-.4s.2-.4.4-.4h129.8c.2 0 .4.2.4.4s-.2.4-.4.4z"/></g><circle fill="#fff" cx="233" cy="189.6" r="16.1"/><circle fill="#fff" cx="166.5" cy="189.6" r="16.1"/><linearGradient id="m" gradientUnits="userSpaceOnUse" x1="232.989" y1="205.681" x2="232.989" y2="173.496"><stop offset="0" stop-color="#FAAF40"/><stop offset=".721" stop-color="#F6921E"/></linearGradient><circle opacity=".8" fill="url(#m)" cx="233" cy="189.6" r="16.1"/><linearGradient id="n" gradientUnits="userSpaceOnUse" x1="243.481" y1="189.589" x2="266.073" y2="189.589"><stop offset="0" stop-color="#79786F"/><stop offset="1" stop-color="#595853"/></linearGradient><path fill="url(#n)" d="M243.5 210.6l20.8-9.7 1.8-22.7-22.6-9.6v10.8l6.6 10.2-6.6 10.2z"/><path fill="#595752" d="M233 176.1c7.4 0 13.5 6.1 13.5 13.5s-6.1 13.5-13.5 13.5-13.5-6.1-13.5-13.5c0-7.5 6-13.5 13.5-13.5m0-10c-13 0-23.5 10.5-23.5 23.5s10.5 23.5 23.5 23.5 23.5-10.5 23.5-23.5-10.5-23.5-23.5-23.5z"/><path fill="#3D3E39" d="M246.4 203.1c-7.5 7.5-19.6 7.5-27.1 0s-7.5-19.6 0-27.1 19.6-7.5 27.1 0 7.5 19.6 0 27.1zm-26.1-26.2c-7 7-7 18.3 0 25.3s18.3 7 25.3 0 7-18.3 0-25.3c-7-6.9-18.4-6.9-25.3 0z"/><linearGradient id="o" gradientUnits="userSpaceOnUse" x1="274.132" y1="205.681" x2="274.132" y2="173.496" gradientTransform="matrix(-1 0 0 1 440.611 0)"><stop offset="0" stop-color="#FAAF40"/><stop offset=".721" stop-color="#F6921E"/></linearGradient><circle opacity=".8" fill="url(#o)" cx="166.5" cy="189.6" r="16.1"/><linearGradient id="p" gradientUnits="userSpaceOnUse" x1="133.394" y1="189.589" x2="155.986" y2="189.589"><stop offset="0" stop-color="#595853"/><stop offset="1" stop-color="#79786F"/></linearGradient><path fill="url(#p)" d="M156 210.6l-20.9-9.7-1.7-22.7 22.6-9.6v10.8l-6.7 10.2 6.7 10.2z"/><path fill="#595752" d="M166.5 176.1c-7.4 0-13.5 6.1-13.5 13.5s6.1 13.5 13.5 13.5 13.5-6.1 13.5-13.5c0-7.5-6.1-13.5-13.5-13.5m0-10c13 0 23.5 10.5 23.5 23.5s-10.5 23.5-23.5 23.5-23.5-10.5-23.5-23.5 10.5-23.5 23.5-23.5z"/><path fill="#3D3E39" d="M153 203.1c7.5 7.5 19.6 7.5 27.1 0s7.5-19.6 0-27.1-19.6-7.5-27.1 0c-7.4 7.5-7.4 19.6 0 27.1zm26.2-26.2c7 7 7 18.3 0 25.3s-18.3 7-25.3 0-7-18.3 0-25.3c7-6.9 18.3-6.9 25.3 0z"/><g fill="#9C9996"><circle cx="232.7" cy="208.2" r="2"/><circle cx="232.7" cy="171.2" r="2"/><circle cx="248.9" cy="199.1" r="2"/><circle cx="216.8" cy="180.6" r="2"/><circle cx="249.1" cy="180.6" r="2"/><circle cx="217" cy="199.1" r="2"/><circle cx="166.8" cy="208.2" r="2"/><circle cx="166.8" cy="171.2" r="2"/><circle cx="150.6" cy="199.1" r="2"/><circle cx="182.6" cy="180.6" r="2"/><circle cx="150.4" cy="180.6" r="2"/><circle cx="182.4" cy="199.1" r="2"/></g><path stroke="#79786F" stroke-width=".874" stroke-miterlimit="10" d="M285.2 251.1" fill="none"/><path opacity=".08" fill="#3D3E39" d="M264.3 200.9l-20.8 9.7c-3.2 1.6-6.7 2.5-10.5 2.5-9.1 0-17-5.2-20.9-12.8-8-3-16.9-2.8-24.9.4-4 7.4-11.8 12.4-20.7 12.4-3.8 0-7.3-.9-10.5-2.5l-20.8-9.7-1.6 1 22.5 10.5c3.2 1.6 6.7 2.5 10.5 2.5 9 0 16.7-5 20.7-12.4 8-3.2 16.8-3.4 24.9-.4 3.9 7.6 11.8 12.8 20.9 12.8 3.8 0 7.3-.9 10.5-2.5l22.3-10.5-1.6-1z"/><g fill="#F4F3E3" opacity=".2"><path d="M172.4 155.7c.3.3.4.6.6.9.1.3.2.7.2 1.1v4c0 .5-.1.9-.3 1.3-.2.4-.4.8-.7 1.1-.3.3-.7.6-1.1.7-.4.2-.9.3-1.3.3h-4.1c-.3 0-.4-.1-.4-.4v-18.3c0-.3.1-.4.4-.4h4.1c.5 0 .9.1 1.3.3.4.2.8.4 1.1.7.3.3.6.7.7 1.1.2.4.3.9.3 1.3v2.7c0 .8-.3 1.5-.8 2.1-.3.3-.6.5-1 .7.4.3.7.5 1 .8zm-2.5-6c0-.2-.1-.3-.2-.5-.1-.1-.3-.2-.5-.2h-.9v4.6h.9c.2 0 .3-.1.5-.2.1-.1.2-.3.2-.5v-3.2zm0 7.6c0-.2-.1-.3-.2-.5-.1-.1-.3-.2-.5-.2h-.9v5.6h.9c.2 0 .3-.1.5-.2.1-.1.2-.3.2-.5v-4.2zM182.2 162.4v2.4c0 .3-.1.4-.4.4h-6.2c-.3 0-.4-.1-.4-.4v-18.3c0-.3.1-.4.4-.4h2.4c.3 0 .4.1.4.4v15.5h3.4c.3 0 .4.1.4.4zM193.3 146.2v.3c-1.2 2.7-2.4 5.4-3.7 8l3.6 10.3v.3c-.1.1-.1.1-.2.1h-2.7c-.1 0-.2 0-.3-.1-.1-.1-.2-.1-.2-.2l-2-6.2c-.2.4-.3.8-.5 1.1v5c0 .3-.1.4-.4.4h-2.4c-.3 0-.4-.1-.4-.4v-18.3c0-.3.1-.4.4-.4h2.4c.3 0 .4.1.4.4v5.9l2.5-5.9c.1-.2.3-.3.5-.3h2.7c.2-.1.3-.1.3 0zM200.1 146.2c.4.2.8.4 1.1.7.3.3.6.7.7 1.1.2.4.3.9.3 1.3v1c0 .3-.1.4-.4.5-.8.2-1.7.4-2.5.7-.2.1-.4 0-.4-.3v-1.8c0-.2-.1-.3-.2-.5-.1-.1-.3-.2-.5-.2h-.2c-.2 0-.3.1-.5.2-.1.1-.2.3-.2.5v2.5c0 .2.1.4.1.5l.3.4 3.6 2.7c.3.3.5.5.6.8l.2.9v4.7c0 .5-.1.9-.3 1.3-.2.4-.4.8-.7 1.1-.3.3-.7.6-1.1.7-.4.2-.9.3-1.3.3h-1c-.5 0-.9-.1-1.3-.3-.4-.2-.8-.4-1.1-.7-.3-.3-.6-.7-.7-1.1-.2-.4-.3-.9-.3-1.3v-2.6c0-.3.1-.4.4-.5.8-.2 1.7-.4 2.5-.7.2-.1.4 0 .4.3v3.4c0 .2.1.3.2.5.1.1.3.2.5.2h.2c.2 0 .3-.1.5-.2.1-.1.2-.3.2-.5v-3.6l-.1-.6-.3-.5-3.5-2.7c-.3-.3-.5-.5-.6-.8-.1-.3-.2-.6-.2-1v-3.3c0-.5.1-.9.3-1.3.2-.4.4-.8.7-1.1.3-.3.7-.6 1.1-.7.4-.2.9-.3 1.3-.3h1c.4 0 .8.1 1.2.3zM214.9 146.5v18.3c0 .3-.1.4-.4.4h-2.6c-.3 0-.4-.1-.4-.4v-8.6l-1.8 7c0 .1-.1.1-.1.1-.1 0-.1 0-.1-.1l-1.8-7v8.6c0 .3-.1.4-.4.4h-2.6c-.3 0-.4-.1-.4-.4v-18.3c0-.3.1-.4.4-.4h2.3c.1 0 .2 0 .3.1l.2.3c.7 3.3 1.4 6.5 2.2 9.8.7-3.3 1.4-6.5 2.2-9.8 0-.1.1-.2.2-.3.1-.1.2-.1.3-.1h2.3c.1 0 .2.1.2.4zM224.6 146.5v2.4c0 .3-.1.4-.4.4h-1.9v15.5c0 .3-.1.4-.4.4h-2.4c-.1 0-.2 0-.3-.1-.1-.1-.1-.2-.1-.3v-15.5h-1.9c-.3 0-.4-.1-.4-.4v-2.4c0-.3.1-.4.4-.4h7c.3 0 .4.1.4.4zM234.3 146.5v18.3c0 .3-.1.4-.4.4h-2.4c-.3 0-.4-.1-.4-.4v-7.8h-1.8v7.8c0 .3-.1.4-.4.4h-2.4c-.3 0-.4-.1-.4-.4v-18.3c0-.3.1-.4.4-.4h2.4c.3 0 .4.1.4.4v7.3h1.8v-7.3c0-.3.1-.4.4-.4h2.4c.3 0 .4.1.4.4z"/></g><path fill="#F4F3E3" d="M172.4 154.7c.3.3.4.6.6.9.1.3.2.7.2 1.1v4c0 .5-.1.9-.3 1.3-.2.4-.4.8-.7 1.1-.3.3-.7.6-1.1.7-.4.2-.9.3-1.3.3h-4.1c-.3 0-.4-.1-.4-.4v-18.3c0-.3.1-.4.4-.4h4.1c.5 0 .9.1 1.3.3.4.2.8.4 1.1.7.3.3.6.7.7 1.1.2.4.3.9.3 1.3v2.7c0 .8-.3 1.5-.8 2.1-.3.3-.6.5-1 .7.4.3.7.5 1 .8zm-2.5-6c0-.2-.1-.3-.2-.5-.1-.1-.3-.2-.5-.2h-.9v4.6h.9c.2 0 .3-.1.5-.2.1-.1.2-.3.2-.5v-3.2zm0 7.6c0-.2-.1-.3-.2-.5-.1-.1-.3-.2-.5-.2h-.9v5.6h.9c.2 0 .3-.1.5-.2.1-.1.2-.3.2-.5v-4.2zm12.3 5.1v2.4c0 .3-.1.4-.4.4h-6.2c-.3 0-.4-.1-.4-.4v-18.3c0-.3.1-.4.4-.4h2.4c.3 0 .4.1.4.4v15.5h3.4c.3 0 .4.1.4.4zm11.1-16.2v.3c-1.2 2.7-2.4 5.4-3.7 8l3.6 10.3v.3c-.1.1-.1.1-.2.1h-2.7c-.1 0-.2 0-.3-.1-.1-.1-.2-.1-.2-.2l-2-6.2c-.2.4-.3.8-.5 1.1v5c0 .3-.1.4-.4.4h-2.4c-.3 0-.4-.1-.4-.4v-18.3c0-.3.1-.4.4-.4h2.4c.3 0 .4.1.4.4v5.9l2.5-5.9c.1-.2.3-.3.5-.3h2.7c.2-.1.3-.1.3 0zm6.8 0c.4.2.8.4 1.1.7.3.3.6.7.7 1.1.2.4.3.9.3 1.3v1c0 .3-.1.4-.4.5-.8.2-1.7.4-2.5.7-.2.1-.4 0-.4-.3v-1.8c0-.2-.1-.3-.2-.5-.1-.1-.3-.2-.5-.2h-.2c-.2 0-.3.1-.5.2-.1.1-.2.3-.2.5v2.5c0 .2.1.4.1.5l.3.4 3.6 2.7c.3.3.5.5.6.8l.2.9v4.7c0 .5-.1.9-.3 1.3-.2.4-.4.8-.7 1.1-.3.3-.7.6-1.1.7-.4.2-.9.3-1.3.3h-1c-.5 0-.9-.1-1.3-.3-.4-.2-.8-.4-1.1-.7-.3-.3-.6-.7-.7-1.1-.2-.4-.3-.9-.3-1.3v-2.6c0-.3.1-.4.4-.5.8-.2 1.7-.4 2.5-.7.2-.1.4 0 .4.3v3.4c0 .2.1.3.2.5.1.1.3.2.5.2h.2c.2 0 .3-.1.5-.2.1-.1.2-.3.2-.5v-3.6l-.1-.6-.3-.5-3.5-2.7c-.3-.3-.5-.5-.6-.8-.1-.3-.2-.6-.2-1v-3.3c0-.5.1-.9.3-1.3.2-.4.4-.8.7-1.1.3-.3.7-.6 1.1-.7.4-.2.9-.3 1.3-.3h1c.4 0 .8.1 1.2.3zm14.8.3v18.3c0 .3-.1.4-.4.4h-2.6c-.3 0-.4-.1-.4-.4v-8.6l-1.8 7c0 .1-.1.1-.1.1-.1 0-.1 0-.1-.1l-1.8-7v8.6c0 .3-.1.4-.4.4h-2.6c-.3 0-.4-.1-.4-.4v-18.3c0-.3.1-.4.4-.4h2.3c.1 0 .2 0 .3.1l.2.3c.7 3.3 1.4 6.5 2.2 9.8.7-3.3 1.4-6.5 2.2-9.8 0-.1.1-.2.2-.3.1-.1.2-.1.3-.1h2.3c.1 0 .2.1.2.4zm9.7 0v2.4c0 .3-.1.4-.4.4h-1.9v15.5c0 .3-.1.4-.4.4h-2.4c-.1 0-.2 0-.3-.1-.1-.1-.1-.2-.1-.3v-15.5h-1.9c-.3 0-.4-.1-.4-.4v-2.4c0-.3.1-.4.4-.4h7c.3 0 .4.1.4.4zm9.7 0v18.3c0 .3-.1.4-.4.4h-2.4c-.3 0-.4-.1-.4-.4v-7.8h-1.8v7.8c0 .3-.1.4-.4.4h-2.4c-.3 0-.4-.1-.4-.4v-18.3c0-.3.1-.4.4-.4h2.4c.3 0 .4.1.4.4v7.3h1.8v-7.3c0-.3.1-.4.4-.4h2.4c.3 0 .4.1.4.4z"/></g></svg>