<svg xmlns="http://www.w3.org/2000/svg" xmlns:xlink="http://www.w3.org/1999/xlink" viewBox="0 0 400 400" enable-background="new 0 0 400 400"><g><ellipse fill="#F4D1A1" cx="199.7" cy="182.6" rx="65.2" ry="49.8"/><g fill="#F4D1A1"><circle cx="266.9" cy="179.7" r="12.2"/><circle cx="132.7" cy="179.7" r="12.2"/></g><path fill="#C1B49A" d="M199.8 227.2c-35.4 0-64.2-23.4-64.2-52.2 0-3.7.5-7.3 1.4-10.8 33.6-8.8 100.8-4.9 125.7.3.9 3.4 1.3 6.9 1.3 10.5 0 28.8-28.7 52.2-64.2 52.2zm-64.2-63.3l-21.1 118.3h1.9v38.1h166.9v-37h1.8l-21.3-119.1-128.2-.3z"/><path opacity=".1" fill="#616259" d="M217.2 213.1c1.6 13.5-6.2 25.4-17.3 25.6-11.2-.1-18.9-12.1-17.3-25.6 1.6-13.7 8.6-24.8 17.3-24.8 8.7-.1 15.6 11.1 17.3 24.8z"/><linearGradient id="a" gradientUnits="userSpaceOnUse" x1="199.814" y1="236.101" x2="199.814" y2="185.675"><stop offset="0" stop-color="#E3905F"/><stop offset=".505" stop-color="#F4D1A1"/></linearGradient><path fill="url(#a)" d="M217.2 210.5c1.6 13.5-6.2 25.4-17.3 25.6-11.2-.1-18.9-12.1-17.3-25.6 1.6-13.7 8.6-24.8 17.3-24.8 8.7 0 15.6 11.1 17.3 24.8z"/><linearGradient id="b" gradientUnits="userSpaceOnUse" x1="199.814" y1="227.206" x2="199.814" y2="169.74"><stop offset="0" stop-color="#fff" stop-opacity=".1"/><stop offset=".641" stop-color="#F4D1A1"/></linearGradient><path fill="url(#b)" d="M199.8 227.2c-1.9-.1-3.7-1-5.2-2.7-2.7-3.1-3.9-7.9-3.3-13 1-8 3.9-38.7 6.2-41.1.9-.9 3.5-1 4.3-.3 2.4 2.1 5.5 33 6.5 41.4.6 5-.7 9.9-3.3 13-1.5 1.8-3.3 2.6-5.2 2.7z"/><path fill="#FAAF40" d="M271.4 160.8c0-59.8-32.1-108.2-71.6-108.2s-71.6 48.4-71.6 108.2c0 7.6 6.6 6.3 8.7 8.3 6.2 5.8 14.4-3.5 25.2-8.3 14.1-6.2 18.4-2.8 37.8-2.8 25.3 0 38.8 4.1 51.5 6.8 7 1.6 20 17.5 20-4z"/><path fill="#79786F" d="M256.3 192.4l9.5-17.5.3-9.3h-7.5z"/><path opacity=".07" fill="#616259" d="M141 167.5l2.3 27.5s33.1 15.2 41.9 6c8.8-9.2 9.9-19 14.3-19h.5c4.4 0 5.5 9.8 14.3 19s41.9-6 41.9-6l2.3-27.5h-117.5z"/><path fill="#79786F" d="M143.3 192.5l-9.5-17.6-.3-9.2h7.6z"/><path fill="#FCF3E7" d="M141 165l2.3 27.5s33.1 15.2 41.9 6c8.8-9.2 9.9-19 14.3-19h.5c4.4 0 5.5 9.8 14.3 19s41.9-6 41.9-6l2.3-27.5h-117.5z"/><linearGradient id="c" gradientUnits="userSpaceOnUse" x1="199.814" y1="201.362" x2="199.814" y2="164.98"><stop offset="0" stop-color="#fff" stop-opacity="0"/><stop offset=".856" stop-color="#00ADEE" stop-opacity=".2"/></linearGradient><path fill="url(#c)" d="M141 165l2.3 27.5s33.1 15.2 41.9 6c8.8-9.2 9.9-19 14.3-19h.5c4.4 0 5.5 9.8 14.3 19s41.9-6 41.9-6l2.3-27.5h-117.5z"/><path opacity=".25" stroke="#C1B49A" stroke-width="1.31" stroke-miterlimit="10" d="M255.8 167.6l-1.9 23.1c-4.6 2-19.7 8.1-30 8.1-3.6 0-6.1-.7-7.5-2.2-4-4.2-6.4-8.6-8.2-12-2.2-4.2-4.2-7.8-8-7.8h-.5c-3.8 0-5.8 3.6-8 7.8-1.9 3.5-4.2 7.8-8.2 12-1.4 1.4-3.9 2.2-7.5 2.2-10.4 0-25.4-6.1-30-8.1l-1.9-23.1" fill="none"/><path opacity=".05" fill="#616259" d="M128.3 156.7c0 1.4-.1 2.8-.1 4.1 0 7.6 6.6 6.3 8.7 8.3 6.2 5.8 14.4-3.5 25.2-8.3 14.1-6.2 18.4-2.8 37.8-2.8 25.3 0 38.8 4.1 51.5 6.8 7.1 1.5 20.1 17.4 20.1-4 0-1.4 0-2.8-.1-4.1-47.1-9.3-96-9.3-143.1 0z"/><path opacity=".15" fill="#616259" d="M266.9 167.5c-.8 0-1.7.1-2.4.2l-1.3-7.5c-41.9-7.3-85.1-7.3-126.9 0l-1.3 7.4c-.7-.1-1.5-.2-2.2-.2-6.7 0-12.2 5.5-12.2 12.2v.7c51.9-12 106.6-12 158.6 0v-.7c-.1-6.7-5.5-12.1-12.3-12.1z"/><g fill="#616259"><g opacity=".25"><path d="M180.9 181.9c-9 .4-18 1.2-27 2.3-1.5.2-2.8-.8-3-2.3-.2-1.4.9-2.8 2.3-2.9 9.1-1.1 18.2-1.9 27.4-2.3 1.5-.1 2.7 1.1 2.8 2.5.2 1.4-1 2.7-2.5 2.7zM172.3 182.2c-.2-2.6-2.5-4.6-5.3-4.4-2.7.2-4.7 2.6-4.5 5.2.3 2.6 2.6 4.6 5.3 4.3 2.7-.1 4.7-2.4 4.5-5.1z"/></g><g opacity=".25"><path d="M245.2 184.2c-9-1.1-18-1.8-27-2.3-1.5-.1-2.6-1.3-2.5-2.7.1-1.4 1.3-2.6 2.8-2.5 9.1.4 18.3 1.2 27.4 2.3 1.5.2 2.5 1.5 2.4 2.9-.3 1.4-1.7 2.5-3.1 2.3zM236.6 183.1c.3-2.6-1.7-5-4.5-5.2-2.7-.2-5.1 1.8-5.3 4.4-.2 2.6 1.8 4.9 4.5 5.2 2.6.1 5-1.8 5.3-4.4z"/></g></g><path opacity=".1" fill="#616259" d="M283.3 320.3v-37h1.8l-2.1-11.9c-27 8-54.8 14-83.2 18-28.5-4-56.3-10.1-83.4-18.1l-1.9 10.8h1.9v38.1h166.9z"/><path opacity=".5" fill="#616259" stroke="#616259" stroke-width="1.27" stroke-linecap="round" stroke-miterlimit="10" d="M209.3 245.1c-3.7 3.5-10.2 7.9-15.2 8.4-1.9.2-3.9.1-5.7-.5-.9-.3-1.8-.8-2.3-1.6-.6-.8-.8-1.9-.4-2.7 1.1-2.4 5.8-3 8-3.4 3.4-.6 6.8-.6 10.2-.5 3.1.1 6.4.3 9.5 1"/><path opacity=".1" fill="#616259" stroke="#616359" stroke-width="1.27" stroke-linecap="round" stroke-linejoin="round" stroke-miterlimit="10" d="M208.8 265.8c-4.7.5-8.4-2.9-8.7-7.3h-.1c-.5 4.4-4.5 8-9.1 7.7-3.7-.3-6.2-2.9-6.5-6.2-.3 3.9 2.3 7.2 6.5 7.5 4.7.3 8.6-3.3 9.1-7.7h.1c.2 4.4 4 7.8 8.7 7.3 4.4-.5 7.2-4.2 6.9-8.3-.3 3.5-3 6.5-6.9 7z"/><g opacity=".2" fill="#616259"><path d="M233.1 164.2l28.5.1c-6.3-1.2-14.9-2.4-25-3.3-1.2.9-2.4 2-3.5 3.2zM263.9 164.2h-2.3l1.1.2c.9 3.4 1.3 6.9 1.3 10.5 0 19.6-13.3 36.7-32.9 45.6 8 9.5 20 15.5 33.6 15.5 4.1 0 8-.6 11.8-1.6l-12.6-70.2z"/></g><g opacity=".2" fill="#616259"><path d="M166.3 164.2l-28.5.1c6.3-1.2 14.9-2.4 25-3.3 1.2.9 2.4 2 3.5 3.2zM135.5 164.2h2.3l-1.1.2c-.9 3.4-1 6.9-1 10.5 0 19.6 13 36.4 32.6 45.5-8 9.5-20 15.6-33.6 15.6-4.1 0-8-.6-11.8-1.6l12.6-70.2z"/></g><defs><path id="d" d="M271.4 160.8c0-59.8-32.1-108.2-71.6-108.2s-71.6 48.4-71.6 108.2c0 7.6 6.6 6.3 8.7 8.3 6.2 5.8 14.4-3.5 25.2-8.3 14.1-6.2 18.4-2.8 37.8-2.8 25.3 0 38.8 4.1 51.5 6.8 7 1.6 20 17.5 20-4z"/></defs><clipPath id="e"><use xlink:href="#d" overflow="visible"/></clipPath><linearGradient id="f" gradientUnits="userSpaceOnUse" x1="199.814" y1="138.815" x2="199.814" y2="47.129"><stop offset="0" stop-color="#FAC34B" stop-opacity="0"/><stop offset="1" stop-color="#616259"/></linearGradient><path opacity=".1" clip-path="url(#e)" stroke="url(#f)" stroke-width="3.811" stroke-miterlimit="10" d="M221.2 131.6c0 2.9-2.4 5.3-5.3 5.3h-32.2c-2.9 0-5.3-2.4-5.3-5.3v-77.3c0-2.9 2.4-5.3 5.3-5.3h32.2c2.9 0 5.3 2.4 5.3 5.3v77.3z" fill="none"/><linearGradient id="g" gradientUnits="userSpaceOnUse" x1="199.815" y1="139.27" x2="199.815" y2="46.674"><stop offset="0" stop-color="#FAC34B" stop-opacity="0"/><stop offset=".508" stop-color="#FAC34B"/></linearGradient><path fill="url(#g)" d="M221.2 131.6c0 2.9-2.3 5.8-5.3 6.3-10.7 1.8-21.6 1.8-32.3 0-2.9-.5-5.3-3.4-5.3-6.3v-77.3c0-2.9 2.3-5.8 5.3-6.3 10.7-1.8 21.6-1.8 32.3 0 2.9.5 5.3 3.4 5.3 6.3v77.3z"/><linearGradient id="h" gradientUnits="userSpaceOnUse" x1="199.815" y1="135.185" x2="199.815" y2="50.758"><stop offset="0" stop-color="#FAAF40" stop-opacity="0"/><stop offset="1" stop-color="#FAAF40"/></linearGradient><path stroke="url(#h)" stroke-width="2.541" stroke-linecap="round" stroke-linejoin="round" stroke-miterlimit="10" d="M183.7 132.7c-.1 0-.2-.1-.2-.2v-79c0-.1.1-.2.2-.2 10.7-1.6 21.6-1.6 32.3 0 .1 0 .2.1.2.2v79c0 .1-.1.2-.2.2-10.7 1.6-21.6 1.6-32.3 0z" fill="none"/><path stroke="#FAC34B" stroke-width="16.516" stroke-linecap="round" stroke-linejoin="round" stroke-miterlimit="10" d="M116 170.4c55.1-13.2 112.5-13.2 167.6 0" fill="none"/><path stroke="#FAAF40" stroke-width="2.541" stroke-linecap="round" stroke-linejoin="round" stroke-miterlimit="10" d="M116 170.4c55.1-13.2 112.5-13.2 167.6 0" fill="none"/><g opacity=".1" fill="#616259"><path d="M178.4 119.6l.2 3.5c0 .4-.2.6-.6.6l-4.8.3.4 5.6 4.1-.3c.4 0 .6.1.6.5.1 1.2.2 2.3.2 3.5 0 .4-.2.6-.5.6l-4 .3c.3 4 .6 8 1 12 0 .4-.1.6-.5.6l-3.5.3c-.4 0-.6-.1-.6-.5-.8-8.7-1.6-17.4-2.5-26.1 0-.4.1-.6.5-.6 3.1-.3 6.1-.5 9.2-.7.5-.1.7 0 .8.4zM195.1 145.1c.1.4 0 .5-.4.6-1.2 0-2.4 0-3.5.1-.2 0-.3 0-.5-.1-.1-.1-.2-.2-.3-.4-1-3.2-2.1-6.3-3.2-9.4l.4 10.1c0-.1 0-.3-.1-.4 0 .3-.2.4-.5.4-1.2 0-2.3.1-3.5.2-.4 0-.6-.2-.6-.5l-1.4-26.1c0-.4.2-.6.6-.6 2.1-.1 4.2-.2 6.4-.3.7 0 1.4.1 2.1.3.7.2 1.2.6 1.7 1s.9.9 1.2 1.5c.3.6.4 1.2.5 1.9l.1 6.3c0 1-.2 1.8-.7 2.6-.5.8-1.2 1.4-2 1.8 1.2 3.7 2.4 7.4 3.7 11zm-8.2-14.5h1.3c.3 0 .5-.1.7-.3.2-.2.3-.4.3-.7l-.2-6c0-.3-.1-.5-.3-.7-.2-.2-.4-.3-.7-.2h-1.3c0 2.7.1 5.3.2 7.9zM214 119.2c-.4 8.7-.7 17.4-1.1 26.2 0 .4-.2.5-.6.5-1.2-.1-2.5-.1-3.7-.1-.4 0-.5-.2-.5-.6l.3-12.3-2.9 10c-.1.1-.1.2-.2.2s-.1-.1-.2-.2c-.8-3.4-1.6-6.7-2.5-10.1l-.1 12.3c0 .4-.2.5-.6.5h-3.7c-.4 0-.5-.2-.5-.5-.1-8.7-.1-17.4-.2-26.2 0-.4.2-.5.6-.5h3.6c.2 0 .3.1.4.2.1.1.2.2.3.4 1.1 4.7 2.1 9.3 3.1 14 1.2-4.6 2.4-9.2 3.6-13.9.1-.1.2-.2.3-.4.1-.1.3-.2.5-.2l3.6.1c.3.1.5.3.5.6zM231.3 120.4c-.8 8.7-1.6 17.4-2.5 26.1 0 .4-.2.5-.6.5-.8-.1-1.7-.2-2.5-.2-.2 0-.3-.1-.4-.2-.1-.1-.2-.2-.3-.4-1-4.4-2.1-8.8-3.2-13.2l-.9 12.8c0 .4-.2.5-.6.5l-3.5-.2c-.4 0-.5-.2-.5-.6l1.4-26.1c0-.4.2-.5.6-.5l2.8.2c.2 0 .3.1.5.2.1.1.2.2.3.4 1.2 4.3 2.3 8.5 3.4 12.8l1-12.4c0-.4.2-.5.6-.5l3.8.3c.5 0 .6.2.6.5z"/></g><g fill="#fff"><path d="M178.4 118.3l.2 3.5c0 .4-.2.6-.6.6l-4.8.3.4 5.6 4.1-.3c.4 0 .6.1.6.5.1 1.2.2 2.3.2 3.5 0 .4-.2.6-.5.6l-4 .3c.3 4 .6 8 1 12 0 .4-.1.6-.5.6l-3.5.3c-.4 0-.6-.1-.6-.5-.8-8.7-1.6-17.4-2.5-26.1 0-.4.1-.6.5-.6 3.1-.3 6.1-.5 9.2-.7.5-.1.7.1.8.4zM195.1 143.9c.1.4 0 .5-.4.6-1.2 0-2.4 0-3.5.1-.2 0-.3 0-.5-.1-.1-.1-.2-.2-.3-.4-1-3.2-2.1-6.3-3.2-9.4l.4 10.1c0-.1 0-.3-.1-.4 0 .3-.2.4-.5.4-1.2 0-2.3.1-3.5.2-.4 0-.6-.2-.6-.5l-1.4-26.1c0-.4.2-.6.6-.6 2.1-.1 4.2-.2 6.4-.3.7 0 1.4.1 2.1.3.7.2 1.2.6 1.7 1s.9.9 1.2 1.5c.3.6.4 1.2.5 1.9l.1 6.3c0 1-.2 1.8-.7 2.6-.5.8-1.2 1.4-2 1.8 1.2 3.6 2.4 7.3 3.7 11zm-8.2-14.5h1.3c.3 0 .5-.1.7-.3.2-.2.3-.4.3-.7l-.2-6c0-.3-.1-.5-.3-.7-.2-.2-.4-.3-.7-.2h-1.3c0 2.7.1 5.3.2 7.9zM214 118c-.4 8.7-.7 17.4-1.1 26.2 0 .4-.2.5-.6.5-1.2-.1-2.5-.1-3.7-.1-.4 0-.5-.2-.5-.6l.3-12.3-2.9 10c-.1.1-.1.2-.2.2s-.1-.1-.2-.2c-.8-3.4-1.6-6.7-2.5-10.1l-.1 12.3c0 .4-.2.5-.6.5h-3.7c-.4 0-.5-.2-.5-.5-.1-8.7-.1-17.4-.2-26.2 0-.4.2-.5.6-.5h3.6c.2 0 .3.1.4.2.1.1.2.2.3.4 1.1 4.7 2.1 9.3 3.1 14 1.2-4.6 2.4-9.2 3.6-13.9.1-.1.2-.2.3-.4.1-.1.3-.2.5-.2l3.6.1c.3 0 .5.2.5.6zM231.3 119.2c-.8 8.7-1.6 17.4-2.5 26.1 0 .4-.2.5-.6.5-.8-.1-1.7-.2-2.5-.2-.2 0-.3-.1-.4-.2-.1-.1-.2-.2-.3-.4-1-4.4-2.1-8.8-3.2-13.2l-.9 12.8c0 .4-.2.5-.6.5l-3.5-.2c-.4 0-.5-.2-.5-.6l1.4-26.1c0-.4.2-.5.6-.5l2.8.2c.2 0 .3.1.5.2.1.1.2.2.3.4 1.2 4.3 2.3 8.5 3.4 12.8l1-12.4c0-.4.2-.5.6-.5l3.8.3c.5-.1.6.1.6.5z"/></g><defs><path id="i" d="M296.1 331c-31.3 9-63.4 15.8-96.3 20v-57.4c29.9-4.2 59.2-10.7 87.6-19.3l8.7 56.7z"/></defs><clipPath><use xlink:href="#i" overflow="visible"/></clipPath><defs><path id="j" d="M296.1 331c-31.3 9-63.4 15.8-96.3 20v-57.4c29.9-4.2 59.2-10.7 87.6-19.3l8.7 56.7z"/></defs><clipPath><use xlink:href="#j" overflow="visible"/></clipPath><defs><path id="k" d="M103.6 331c31.3 9 63.4 15.8 96.3 20v-57.4c-29.9-4.2-59.2-10.7-87.6-19.3-3 18.9-5.9 37.8-8.7 56.7z"/></defs><clipPath><use xlink:href="#k" overflow="visible"/></clipPath><defs><path id="l" d="M103.6 331c31.3 9 63.4 15.8 96.3 20v-57.4c-29.9-4.2-59.2-10.7-87.6-19.3-3 18.9-5.9 37.8-8.7 56.7z"/></defs><clipPath><use xlink:href="#l" overflow="visible"/></clipPath><defs><path id="m" d="M296.1 331c-31.3 9-63.4 15.8-96.3 20v-57.4c29.9-4.2 59.2-10.7 87.6-19.3l8.7 56.7z"/></defs><clipPath><use xlink:href="#m" overflow="visible"/></clipPath><defs><path id="n" d="M296.1 331c-31.3 9-63.4 15.8-96.3 20v-57.4c29.9-4.2 59.2-10.7 87.6-19.3l8.7 56.7z"/></defs><clipPath><use xlink:href="#n" overflow="visible"/></clipPath><defs><path id="o" d="M103.6 331c31.3 9 63.4 15.8 96.3 20v-57.4c-29.9-4.2-59.2-10.7-87.6-19.3-3 18.9-5.9 37.8-8.7 56.7z"/></defs><clipPath><use xlink:href="#o" overflow="visible"/></clipPath><defs><path id="p" d="M103.6 331c31.3 9 63.4 15.8 96.3 20v-57.4c-29.9-4.2-59.2-10.7-87.6-19.3-3 18.9-5.9 37.8-8.7 56.7z"/></defs><clipPath><use xlink:href="#p" overflow="visible"/></clipPath><path fill="#53ADAD" d="M296.1 331c-31.3 9-63.4 15.8-96.3 20v-57.4c29.9-4.2 59.2-10.7 87.6-19.3l8.7 56.7z"/><defs><path id="q" d="M296.1 331c-31.3 9-63.4 15.8-96.3 20v-57.4c29.9-4.2 59.2-10.7 87.6-19.3l8.7 56.7z"/></defs><clipPath id="r"><use xlink:href="#q" overflow="visible"/></clipPath><g clip-path="url(#r)" stroke="#53ADAD" stroke-width="7.115" stroke-miterlimit="10" fill="none"><path opacity=".2" d="M279.5 275.4l9.9 71.7M267.7 276.9l8.4 71.9M255.9 278.2l7 72M244.1 279.2l5.5 72.2M232.3 280l4 72.3M220.5 280.5l2.6 72.3M208.7 280.8l1.1 72.4"/></g><defs><path id="s" d="M296.1 331c-31.3 9-63.4 15.8-96.3 20v-57.4c29.9-4.2 59.2-10.7 87.6-19.3l8.7 56.7z"/></defs><clipPath id="t"><use xlink:href="#s" overflow="visible"/></clipPath><g clip-path="url(#t)" stroke="#fff" stroke-width="3.811" stroke-miterlimit="10" fill="none"><path opacity=".2" d="M196.6 299.8c32.4-4.1 64.2-10.8 94.9-19.9M196.4 345.1c34.9-4.1 69.1-10.9 102.2-20.5M196.5 336c34.4-4.1 68.1-10.9 100.8-20.3M196.5 327c33.9-4.1 67.1-10.9 99.3-20.2M196.6 317.9c33.4-4.1 66.1-10.8 97.8-20.1M196.6 308.9c32.9-4.1 65.1-10.8 96.4-20"/></g><path fill="#53ADAD" d="M103.6 331c31.3 9 63.4 15.8 96.3 20v-57.4c-29.9-4.2-59.2-10.7-87.6-19.3-3 18.9-5.9 37.8-8.7 56.7z"/><defs><path id="u" d="M103.6 331c31.3 9 63.4 15.8 96.3 20v-57.4c-29.9-4.2-59.2-10.7-87.6-19.3-3 18.9-5.9 37.8-8.7 56.7z"/></defs><clipPath id="v"><use xlink:href="#u" overflow="visible"/></clipPath><g clip-path="url(#v)" stroke="#53ADAD" stroke-width="7.115" stroke-miterlimit="10" fill="none"><path opacity=".2" d="M120.2 275.4l-9.9 71.7M131.9 276.9l-8.4 71.9M143.7 278.2l-7 72M155.5 279.2l-5.5 72.2M167.3 280l-4 72.3M179.2 280.5l-2.6 72.3M191 280.8l-1.1 72.4"/></g><defs><path id="w" d="M103.6 331c31.3 9 63.4 15.8 96.3 20v-57.4c-29.9-4.2-59.2-10.7-87.6-19.3-3 18.9-5.9 37.8-8.7 56.7z"/></defs><clipPath id="x"><use xlink:href="#w" overflow="visible"/></clipPath><g clip-path="url(#x)" stroke="#fff" stroke-width="3.811" stroke-miterlimit="10" fill="none"><path opacity=".2" d="M203 299.8c-32.4-4.1-64.2-10.8-94.9-19.9M203.2 345.1c-34.9-4.1-69.1-10.9-102.2-20.5M203.2 336c-34.4-4.1-68.1-10.9-100.8-20.3M203.1 327c-33.9-4.1-67.1-10.9-99.3-20.2M203.1 317.9c-33.4-4.1-66.1-10.8-97.8-20.1M203 308.9c-32.9-4.1-65.1-10.8-96.4-20"/></g><path opacity=".15" fill="#616259" d="M202.5 350.6l-2.7.4-2.7-.4v-57.4l2.7.4 2.7-.4z"/><circle fill="#79786F" cx="199.8" cy="310.8" r="6.8"/><circle opacity=".2" fill="#79786F" stroke="#fff" stroke-width="1.27" stroke-miterlimit="10" cx="199.8" cy="310.8" r="3.3"/><circle fill="#79786F" cx="199.8" cy="333.4" r="6.8"/><circle opacity=".2" fill="#79786F" stroke="#fff" stroke-width="1.27" stroke-miterlimit="10" cx="199.8" cy="333.4" r="3.3"/></g></svg>