<svg xmlns="http://www.w3.org/2000/svg" viewBox="0 0 276.6 50.3" enable-background="new 0 0 276.6 50.3"><path d="M29.8 5.3h7.9v41.1h-7.9zm-10.9 14.9h7.9v26.2h-7.9z" fill="#F05F3B"/><path d="M7.9 20.2h7.9v8.4h-7.9zm0 11.7h7.9v14.6h-7.9zm51.7-11.7h6.5v26.2h-6.5zm22.6 0h6.1l8 13.1v-13.1h6.1v26.2h-5.3l-8.8-14.3v14.3h-6.1zm36.2 0h9.3c8.2 0 10.7 1.5 10.7 13.1 0 11.5-2.6 13.1-10.7 13.1h-9.3v-26.2zm9.4 21c3.3 0 3.9-1.6 3.9-7v-1.8c0-5.5-.6-6.9-3.9-6.9h-2.8v15.7h2.8zm29.3 5.2h-6.5l8.5-26.3h5.9l8 26.3h-6.9l-.9-3.3h-7.3l-.8 3.3zm4.7-16.5l-2.2 8h4.4l-2.2-8zm28.2-3.9h-6.9v-5.8h20.4v5.8h-7v20.4h-6.5zm26.9 10.9v-17h6.6v16.8c0 3.4 1.1 3.9 3.7 3.9s3.7-.4 3.7-3.8v-16.9h6.2v16.9c0 7.7-2.3 9.6-9.9 9.6-7.6 0-10.3-1.7-10.3-9.5m43.6-11.7c2.6 0 5.8.5 7.6.8v-5.8c-1.8-.3-5-.6-7.5-.6-6.3 0-9.1 1.7-9.1 7.6 0 5.9 1.6 7.1 8 8.6 3.5.8 3.7 1 3.7 2.9 0 2.1-.5 2.4-3.4 2.4-2.4 0-7.2-.6-7.6-.8v5.7c1.2.2 4.1.6 7.5.6 7.6 0 10-1.9 10-7.9 0-5.9-1.7-7-8.2-8.6-3.2-.8-3.6-.9-3.6-2.7 0-1.9.6-2.2 2.6-2.2" fill="#414142"/></svg>