<svg xmlns="http://www.w3.org/2000/svg" xmlns:xlink="http://www.w3.org/1999/xlink" viewBox="0 0 400 400" enable-background="new 0 0 400 400"><g><path stroke="#39291A" stroke-width="3.061" stroke-miterlimit="10" d="M279.2 155.1s28.6 94.4-46.7 122.9" fill="none"/><path fill="#D85331" d="M200.5 341.9c-38.6 0-183.7-88.4-.6-88.4s39.2 88.4.6 88.4z"/><circle fill="#39291A" cx="260.3" cy="189.1" r="11.4"/><path stroke="#39291A" stroke-width="3.061" stroke-miterlimit="10" d="M120.5 155.1s-28.6 94.4 46.7 122.9" fill="none"/><path fill="#39291A" d="M116.1 158.5c0 1.1.8 2 1.9 2h3.5c1 0 1.9-.9 1.9-2s-.8-2-1.9-2h-3.5c-1.1 0-1.9.9-1.9 2z"/><circle fill="#39291A" cx="139.9" cy="189.1" r="11.4"/><circle fill="#39291A" cx="137.6" cy="199.1" r="6.5"/><circle fill="#39291A" cx="262.5" cy="199.1" r="6.5"/><path opacity=".8" fill="#E1C59A" d="M266.9 259.5c-2.9 30.7-34.1 55.4-67 55.4-32.8 0-64.1-24.7-67-55.4-.6-39.8 2.1-79.9 7-119.7 2.5-30.7 27-65.6 59.9-65.6s57.4 34.9 59.9 65.6c5.2 39.8 7.8 79.8 7.2 119.7z"/><path stroke="#BF4D2D" stroke-width="16.324" stroke-linecap="round" stroke-linejoin="round" stroke-miterlimit="10" d="M174.9 347.9c0-13.9 11.2-25.1 25.1-25.1 13.9 0 25.1 11.2 25.1 25.1" fill="none"/><ellipse fill="#D85331" cx="199.9" cy="330.8" rx="16.9" ry="22.6"/><path fill="#927040" d="M266.9 253.4c-2.9 30.7-34.1 55.4-67 55.4-32.8 0-64.1-24.7-67-55.4-.6-39.8 2.1-79.9 7-119.7 2.7-30.7 27.2-65.7 60.1-65.7 32.9 0 57.4 34.9 59.9 65.6 5 39.9 7.6 79.9 7 119.8z"/><path opacity=".8" fill="#E1C59A" d="M199.9 216.4c-25.2 0-45.8 20.5-45.8 45.8v17.1c0 25.2 20.5 45.8 45.8 45.8s45.8-20.5 45.8-45.8v-17.1c0-25.2-20.5-45.8-45.8-45.8z"/><path fill="#39291A" stroke="#39291A" stroke-width="15.817" stroke-linecap="round" stroke-linejoin="round" stroke-miterlimit="10" d="M237.8 277.3c0 20.9-17 37.9-37.9 37.9s-37.9-17-37.9-37.9v-17.1c0-20.9 17-37.9 37.9-37.9s37.9 17 37.9 37.9v17.1z"/><circle fill="#927040" cx="200.1" cy="259.9" r="29.6"/><path fill="#927040" d="M273.1 174.6c0 10-8.1 18.1-18.1 18.1h-12.9c-10 0-18.1-8.1-18.1-18.1 0-10 8.1-18.1 18.1-18.1h12.9c10 0 18.1 8.1 18.1 18.1z"/><circle fill="#39291A" cx="261.7" cy="167.6" r="6.7"/><path fill="#927040" d="M127 174.6c0 10 8.1 18.1 18.1 18.1h12.9c10 0 18.1-8.1 18.1-18.1 0-10-8.1-18.1-18.1-18.1h-12.9c-9.9 0-18.1 8.1-18.1 18.1z"/><path opacity=".6" fill="#E1C59A" d="M127 156.2h146.1v4.5h-146.1z"/><circle fill="#39291A" cx="259.4" cy="155.5" r="8.3"/><circle fill="#39291A" cx="264.8" cy="160.9" r="8.3"/><circle fill="#39291A" cx="140.7" cy="155.5" r="8.3"/><circle fill="#39291A" cx="135.4" cy="160.9" r="8.3"/><circle fill="#39291A" cx="138.5" cy="167.6" r="6.7"/><path opacity=".6" fill="#E1C59A" d="M222.3 209.8c0-4-3.8-7.2-8.4-7.2h-.4c-.7-7.2-1.4-1.6-1.8-8.8-.4-6.2-22.9-6.2-23.2 0-.4 7.2-1.1 1.6-1.8 8.8h-.4c-4.7 0-8.4 3.2-8.4 7.2 0 3.7 3.3 6.8 7.5 7.2.2 5.7 6.5 10.8 14.8 10.8s14.6-5.1 14.8-10.8c4.1-.4 7.3-3.5 7.3-7.2z"/><linearGradient id="a" gradientUnits="userSpaceOnUse" x1="200.065" y1="225.741" x2="200.065" y2="167.721"><stop offset=".57" stop-color="#AC7E4D"/><stop offset="1" stop-color="#927040" stop-opacity=".1"/></linearGradient><path fill="url(#a)" d="M214.9 213.9c.7 6.1-6 11.8-14.8 11.9-8.8 0-15.5-5.7-14.8-11.9 1.2-11.6 2.6-23.2 3.2-34.8.4-6.2 5.4-11.3 11.6-11.3 6.2 0 11.2 5.1 11.6 11.3.6 11.5 2 23.1 3.2 34.8z"/><path opacity=".4" fill="#E1C59A" d="M220 253.8c-1.4-1.9-3.6-3.1-6.1-3.3-4.6-.5-9.3-.7-13.9-.7s-9.3.2-13.9.7c-2.4.2-4.7 1.5-6.1 3.3-1.3 1.7-1.8 3.7-1.5 5.8.7 4 4.2 6.9 8.3 6.9h.8c4.1-.4 8.2-.6 12.3-.6 4.1 0 8.2.2 12.3.6h.8c4.1 0 7.6-2.9 8.3-6.9.5-2-.1-4.1-1.3-5.8z"/><path fill="#BE825A" d="M220 251.8c-1.4-1.9-3.6-3.1-6.1-3.3-4.6-.5-9.3-.7-13.9-.7s-9.3.2-13.9.7c-2.4.2-4.7 1.5-6.1 3.3-1.3 1.7-1.8 3.7-1.5 5.8.7 4 4.2 6.9 8.3 6.9h.8c4.1-.4 8.2-.6 12.3-.6 4.1 0 8.2.2 12.3.6h.8c4.1 0 7.6-2.9 8.3-6.9.5-2.1-.1-4.1-1.3-5.8z"/><linearGradient id="b" gradientUnits="userSpaceOnUse" x1="200.004" y1="260.326" x2="200.004" y2="251.904"><stop offset="0" stop-color="#FFF694" stop-opacity=".3"/><stop offset="1" stop-color="#fff" stop-opacity="0"/></linearGradient><path opacity=".5" fill="url(#b)" d="M187.6 260.3c-2.1.2-4.1-1.2-4.4-3.2-.3-2.1 1.2-4.1 3.5-4.3 8.8-1.1 17.7-1.1 26.6 0 2.3.3 3.8 2.3 3.5 4.3-.3 2.1-2.3 3.5-4.4 3.2-8.2-1-16.5-1-24.8 0z"/><path fill="#9C973E" d="M138.5 146.8l7-64.3c.7-5.7 4.7-10.5 10.2-12.3l16.3-5.2c3.2-1 5.9-3.1 7.8-5.8l4-5.9c2.8-4.1 7.4-6.5 12.3-6.5h7.7c4.9 0 9.6 2.4 12.3 6.5l4 5.9c1.9 2.8 4.6 4.8 7.8 5.8l16.3 5.2c5.5 1.8 9.5 6.6 10.2 12.3l7 64.3h-122.9z"/><path fill="#39291A" d="M283.6 158.5c0 1.1-.8 2-1.9 2h-3.5c-1 0-1.9-.9-1.9-2s.8-2 1.9-2h3.5c1.1 0 1.9.9 1.9 2z"/><defs><path id="c" d="M138.5 146.8l7-64.3c.7-5.7 4.7-10.5 10.2-12.3l16.3-5.2c3.2-1 5.9-3.1 7.8-5.8l4-5.9c2.8-4.1 7.4-6.5 12.3-6.5h7.7c4.9 0 9.6 2.4 12.3 6.5l4 5.9c1.9 2.8 4.6 4.8 7.8 5.8l16.3 5.2c5.5 1.8 9.5 6.6 10.2 12.3l7 64.3h-122.9z"/></defs><clipPath id="d"><use xlink:href="#c" overflow="visible"/></clipPath><path clip-path="url(#d)" fill="#39291A" d="M136.6 107.2h128.1v36.6h-128.1z"/><path fill="none" d="M141.2 115.6h117.2v28.1h-117.2z"/><text transform="translate(171.026 138.328)" fill="#F4F3E3" font-family="'Franchise-Bold'" font-size="37.8">RNGR</text><path stroke="#7F7A33" stroke-width="1.99" stroke-linecap="round" stroke-linejoin="round" stroke-miterlimit="10" d="M217.8 69.7s3.7 15.7 17.1 20.4M182.1 69.7s-3.7 15.7-17.1 20.4" fill="none"/><path stroke="#9C973E" stroke-width="16.642" stroke-linecap="round" stroke-linejoin="round" stroke-miterlimit="10" fill="none" d="M108.4 150.3h183.2"/><path stroke="#7F7A33" stroke-width="1.99" stroke-linecap="round" stroke-linejoin="round" stroke-miterlimit="10" fill="none" d="M108.4 150.3h183.2"/><path opacity=".6" fill="#E1C59A" d="M199.9 181.1c-2.8 0-5.5 1-7.6 2.9-.7-5.6-5.3-9.3-6.1-9.3h27.599999999999998c-.8 0-5.4 3.7-6.1 9.3-2.2-1.9-4.9-2.9-7.8-2.9v2.1c3.1 0 5.8 1.5 7.5 3.8.1 1.6.3 3.3.7 4.9.3 1 .7 2.1 1.1 3.1 2.3 5.7 5.8 11 10.5 15.1.9.8 1.9 1.6 2.9 2.3 1.2.9 2.4 1.7 3.7 2.4 2.6 1.4 5.4 2.5 8.3 3.2 1.3.3 2.6.5 4 .5 4 .2 8.1-.8 11.8-3.1 4.6-2.9 7.6-7.1 9.5-11.9.5-1.1.9-2.3 1.2-3.5.7-2.4 1.1-5 1.2-7.4.2-2.5-.4-6.6-1.5-9.6-.9-2.5-2.4-4.3-4.4-6.1-5.5-4.9-12.6-5.6-19.6-5.6-1.4 0-2.8.1-4.1.1l-3.2.1c0-.4-.4-.8-.8-.8h-57.7c-.4 0-.8.4-.8.8l-3.2-.1-4.1-.1c-7 0-14.1.7-19.6 5.6-2 1.8-3.5 3.7-4.4 6.1-1.2 3-1.7 7-1.5 9.6.1 2.4.5 5.1 1.2 7.4.3 1.2.7 2.3 1.2 3.5 2 4.8 4.9 9 9.5 11.9 3.8 2.4 7.8 3.3 11.8 3.1 1.3-.1 2.7-.2 4-.5 2.9-.7 5.7-1.8 8.3-3.2 1.3-.7 2.5-1.5 3.7-2.4 1-.7 2-1.5 2.9-2.3 4.7-4.1 8.3-9.3 10.5-15.1.4-1.1.8-2.1 1.1-3.1.4-1.6.7-3.2.7-4.9 1.7-2.3 4.5-3.8 7.5-3.8"/><path fill="#39291A" d="M199.9 179.1c-2.8 0-5.5 1-7.6 2.9-.7-5.6-5.3-9.3-6.1-9.3h27.599999999999998c-.8 0-5.4 3.7-6.1 9.3-2.2-2-4.9-2.9-7.8-2.9v2.1c3.1 0 5.8 1.5 7.5 3.8.1 1.6.3 3.3.7 4.9.3 1 .7 2.1 1.1 3.1 2.3 5.7 5.8 11 10.5 15.1.9.8 1.9 1.6 2.9 2.3 1.2.9 2.4 1.7 3.7 2.4 2.6 1.4 5.4 2.5 8.3 3.2 1.3.3 2.6.5 4 .5 4 .2 8.1-.8 11.8-3.1 4.6-2.9 7.6-7.1 9.5-11.9.5-1.1.9-2.3 1.2-3.5.7-2.4 1.1-5 1.2-7.4.2-2.5-.4-6.6-1.5-9.6-.9-2.5-2.4-4.3-4.4-6.1-5.5-4.9-12.6-5.6-19.6-5.6-1.4 0-2.8.1-4.1.1l-3.2.1c0-.4-.4-.8-.8-.8h-57.7c-.4 0-.8.4-.8.8l-3.2-.1-4.1-.1c-7 0-14.1.7-19.6 5.6-2 1.8-3.5 3.7-4.4 6.1-1.2 3-1.7 7-1.5 9.6.1 2.4.5 5.1 1.2 7.4.3 1.2.7 2.3 1.2 3.5 2 4.8 4.9 9 9.5 11.9 3.8 2.4 7.8 3.3 11.8 3.1 1.3-.1 2.7-.2 4-.5 2.9-.7 5.7-1.8 8.3-3.2 1.3-.7 2.5-1.5 3.7-2.4 1-.7 2-1.5 2.9-2.3 4.7-4.1 8.3-9.3 10.5-15.1.4-1.1.8-2.1 1.1-3.1.4-1.6.7-3.2.7-4.9 1.7-2.3 4.5-3.8 7.5-3.8"/><path fill="#BE825A" d="M185.6 247.5c4.6-.5 9.3-.7 14-.7 4.6 0 9.3.2 14 .7.7.1 1.4.2 2.1.5.1-.8-.2-1.5-1.1-2.1l-6.1-4c-1.1-.7-2.6-.9-4-.5l-3.1 1.1c-1 .3-2.1.3-3 0l-3.1-1.1c-1.3-.5-2.8-.3-4 .5l-6.1 4c-.8.5-1.1 1.2-1.1 1.9.6-.2 1.1-.3 1.5-.3z"/><ellipse fill="#AC7E4D" cx="213.8" cy="207.8" rx="8.4" ry="7.2"/><ellipse fill="#AC7E4D" cx="186.1" cy="207.8" rx="8.4" ry="7.2"/><linearGradient id="e" gradientUnits="userSpaceOnUse" x1="200.054" y1="221.66" x2="200.054" y2="171.802"><stop offset="0" stop-color="#FFF694" stop-opacity=".3"/><stop offset="1" stop-color="#fff" stop-opacity="0"/></linearGradient><path opacity=".5" fill="url(#e)" d="M200.1 221.7c-6.2 0-10.6-3.6-10.8-6.8l-.1-3.6-3.6-.4c-2.1-.2-3.8-1.6-3.8-3.1 0-1.7 2-3.2 4.4-3.2l4.1.2.4-3.8c.3-2.6.5-5.4.8-8.1l.4-4.6c.2-3 .5-6 .6-9 .3-4.1 3.6-7.4 7.5-7.4 4 0 7.3 3.3 7.5 7.5.2 3.1.4 6.2.6 9.2.1 1.5.2 2.9.4 4.4.3 2.8.5 5.5.8 8.1l.4 3.8 4.1-.2c2.4 0 4.4 1.4 4.4 3.2 0 1.5-1.7 2.9-3.8 3.1l-3.6.4-.1 3.6c0 3-4.4 6.6-10.6 6.7z"/><path opacity=".4" fill="#E1C59A" d="M213.2 101.7v-20.1c0-7.3-5.9-13.2-13.2-13.2-7.3 0-13.2 5.9-13.2 13.2v20.1h26.4z"/><path fill="#EDC11B" d="M213.2 100.7v-20.1c0-7.3-5.9-13.2-13.2-13.2-7.3 0-13.2 5.9-13.2 13.2v20.1h26.4z"/><path opacity=".2" stroke="#7F7A33" stroke-width="1.99" stroke-linecap="round" stroke-linejoin="round" stroke-miterlimit="10" d="M192.9 94.7v-14.1c0-3.9 3.2-7.2 7.2-7.2s7.2 3.2 7.2 7.2v14.1h-14.4z" fill="none"/></g></svg>