<svg xmlns="http://www.w3.org/2000/svg" xmlns:xlink="http://www.w3.org/1999/xlink" viewBox="0 0 400 400" enable-background="new 0 0 400 400"><g><g fill="#6B4E3D"><circle cx="267.4" cy="211.1" r="18.2"/><circle cx="261.8" cy="232.2" r="15.1"/></g><g fill="#6B4E3D"><circle cx="131.9" cy="211.1" r="18.2"/><circle cx="137.5" cy="232.2" r="15.1"/></g><path fill="#E6E7E8" d="M265.5 270.2c-6.8 0-12.3 5.5-12.3 12.3 0 6.8 5.5 12.3 12.3 12.3 6.8 0 12.3-5.5 12.3-12.3.1-6.8-5.5-12.3-12.3-12.3zM134.5 270.2c-6.8 0-12.3 5.5-12.3 12.3 0 6.8 5.5 12.3 12.3 12.3 6.8 0 12.3-5.5 12.3-12.3 0-6.8-5.5-12.3-12.3-12.3z"/><path fill="#EFD2AF" d="M135.4 291.4l-.9 15 19.5 17.6 24.9 8.2 39.3 2.4 22.2-6.2 16.2-9.7 6.7-12.3 1-14c3.5-55.6 2.3-111.4-3.6-166.9l-121.4-2.7c-6.1 56-7.4 112.4-3.9 168.6z"/><path opacity=".4" fill="#E1C59A" d="M268.7 135.6c-1.4 0-2.7.1-4.1.4v-.9c0-15.9-12.9-28.7-28.7-28.7-4.9 0-9.5 1.2-13.6 3.4-5.3-6.5-13.3-10.7-22.3-10.7s-17.1 4.2-22.3 10.7c-4-2.2-8.7-3.4-13.6-3.4-15.9 0-28.7 12.9-28.7 28.7v.9c-1.3-.2-2.7-.4-4.1-.4-12.5 0-18.6 9.9-18.6 22.5 0 12.5 6.1 22.9 18.6 22.9h1.1c.9 0 1.8-.1 2.6-.3 5.1-.9 8.4-4.5 11.8-8.2 2.9-3.2 6.2-6.1 6.9-10.6 3.2 1.2 6.7 1.9 10.4 1.9 9 0 17.1-4.2 22.3-10.7 4 2.2 8.7 3.4 13.6 3.4s9.5-1.2 13.6-3.4c5.3 6.5 13.3 10.7 22.3 10.7 3.7 0 7.1-.7 10.4-1.9.8 5 3.6 7.4 7.1 10.7 3.2 3.1 6.9 7.3 11.5 8.1.8.2 1.7.3 2.6.3h1.1c12.5 0 21-10 21-22.6 0-12.5-8.4-22.8-20.9-22.8z"/><circle fill="#FAC34B" cx="200" cy="88.6" r="28.7"/><defs><path id="a" d="M136.3 309.4l10.1 11.4 17.6 10.2 20.9 5.6h20l23.7-3.5 17.3-7.1 13.2-9 4.3-6.5c3.5-55.6 3.3-111.5-2.7-166.9l-121.4-2.7c-6.1 56-6.5 112.4-3 168.5z"/></defs><clipPath id="b"><use xlink:href="#a" overflow="visible"/></clipPath><g opacity=".3" clip-path="url(#b)" fill="#E1C59A"><path d="M200 326c5.8 0 10.6 4.7 10.6 10.6s-4.7 10.6-10.6 10.6c-5.8 0-10.6-4.7-10.6-10.6s4.8-10.6 10.6-10.6m0-3.5c-7.8 0-14.1 6.3-14.1 14.1s6.3 14.1 14.1 14.1 14.1-6.3 14.1-14.1-6.3-14.1-14.1-14.1zM221.2 324.1c5.8 0 10.6 4.7 10.6 10.6 0 5.8-4.7 10.6-10.6 10.6s-10.6-4.7-10.6-10.6c0-5.9 4.7-10.6 10.6-10.6m0-3.6c-7.8 0-14.1 6.3-14.1 14.1s6.3 14.1 14.1 14.1 14.1-6.3 14.1-14.1-6.4-14.1-14.1-14.1zM241.4 317.9c5.8 0 10.6 4.7 10.6 10.6s-4.7 10.6-10.6 10.6-10.6-4.7-10.6-10.6 4.8-10.6 10.6-10.6m0-3.5c-7.8 0-14.1 6.3-14.1 14.1s6.3 14.1 14.1 14.1 14.1-6.3 14.1-14.1-6.3-14.1-14.1-14.1zM259.2 306.4c5.8 0 10.6 4.7 10.6 10.6s-4.7 10.6-10.6 10.6c-5.8 0-10.6-4.7-10.6-10.6s4.8-10.6 10.6-10.6m0-3.5c-7.8 0-14.1 6.3-14.1 14.1s6.3 14.1 14.1 14.1 14.1-6.3 14.1-14.1-6.3-14.1-14.1-14.1zM271.1 289c5.8 0 10.6 4.7 10.6 10.6s-4.7 10.6-10.6 10.6-10.6-4.7-10.6-10.6 4.8-10.6 10.6-10.6m0-3.6c-7.8 0-14.1 6.3-14.1 14.1s6.3 14.1 14.1 14.1 14.1-6.3 14.1-14.1-6.3-14.1-14.1-14.1zM178.7 324.1c5.8 0 10.6 4.7 10.6 10.6 0 5.8-4.7 10.6-10.6 10.6s-10.6-4.7-10.6-10.6c0-5.9 4.8-10.6 10.6-10.6m0-3.6c-7.8 0-14.1 6.3-14.1 14.1s6.3 14.1 14.1 14.1 14.1-6.3 14.1-14.1-6.3-14.1-14.1-14.1zM158.4 317.9c5.8 0 10.6 4.7 10.6 10.6s-4.7 10.6-10.6 10.6-10.6-4.7-10.6-10.6 4.8-10.6 10.6-10.6m0-3.5c-7.8 0-14.1 6.3-14.1 14.1s6.3 14.1 14.1 14.1 14.1-6.3 14.1-14.1-6.3-14.1-14.1-14.1zM140.6 306.4c5.8 0 10.6 4.7 10.6 10.6s-4.7 10.6-10.6 10.6-10.6-4.7-10.6-10.6 4.8-10.6 10.6-10.6m0-3.5c-7.8 0-14.1 6.3-14.1 14.1s6.3 14.1 14.1 14.1 14.1-6.3 14.1-14.1-6.3-14.1-14.1-14.1zM128.7 289c5.8 0 10.6 4.7 10.6 10.6s-4.7 10.6-10.6 10.6-10.6-4.7-10.6-10.6 4.8-10.6 10.6-10.6m0-3.6c-7.8 0-14.1 6.3-14.1 14.1s6.3 14.1 14.1 14.1 14.1-6.3 14.1-14.1-6.3-14.1-14.1-14.1z"/></g><path fill="#fff" d="M283.5 299.5c0-6.8-5.5-12.3-12.3-12.3s-12.3 5.5-12.3 12.3c0 1.8.4 3.6 1.1 5.2h-.7c-6.8 0-12.3 5.5-12.3 12.3v.4c-1.7-.8-3.5-1.3-5.5-1.3-5.8 0-10.7 4-12 9.4-2.2-2-5.1-3.2-8.3-3.2-4.9 0-9.2 2.9-11.2 7.1-2.2-3.1-5.9-5.1-10-5.1-4.2 0-7.8 2.1-10.1 5.2-2-4.2-6.2-7.2-11.2-7.2-3.2 0-6.1 1.2-8.3 3.2-1.3-5.4-6.2-9.4-12-9.4-2 0-3.8.5-5.5 1.3v-.4c0-6.8-5.5-12.3-12.3-12.3h-.7c.7-1.6 1.1-3.3 1.1-5.2 0-6.8-5.5-12.3-12.3-12.3-6.8 0-12.3 5.5-12.3 12.3 0 6.8 5.5 12.3 12.3 12.3h.7c-.7 1.6-1.1 3.3-1.1 5.2 0 6.8 5.5 12.3 12.3 12.3 2 0 3.8-.5 5.5-1.3v.4c0 6.8 5.5 12.3 12.3 12.3 3.2 0 6.1-1.2 8.3-3.2 1.3 5.4 6.2 9.4 12 9.4 4.2 0 7.8-2.1 10.1-5.2 2 4.2 6.2 7.2 11.2 7.2 4.9 0 9.2-2.9 11.2-7.1 2.2 3.1 5.9 5.1 10 5.1 5.8 0 10.7-4 12-9.4 2.2 2 5.1 3.2 8.3 3.2 6.8 0 12.3-5.5 12.3-12.3v-.4c1.7.8 3.5 1.3 5.5 1.3 6.8 0 12.3-5.5 12.3-12.3 0-1.8-.4-3.6-1.1-5.2h.7c6.7.1 12.3-5.5 12.3-12.3z"/><g fill="#7D5B48"><circle cx="200" cy="126" r="28.7"/><circle cx="235.9" cy="133.3" r="28.7"/><circle cx="268.7" cy="156.5" r="22.7"/><circle cx="264.3" cy="122.3" r="23"/><circle cx="200" cy="79.8" r="28.7"/><circle cx="164.1" cy="133.3" r="28.7"/><circle cx="131.3" cy="156.5" r="22.7"/><circle cx="135.7" cy="122.3" r="23"/></g><path fill="#44443D" d="M263.6 155.1c0-.3-.8-30.8-23.2-49.8l9.1-10.8c27.4 23.3 28 58.9 28 60.4l-13.9.2z"/><linearGradient id="c" gradientUnits="userSpaceOnUse" x1="195.148" y1="247.247" x2="195.148" y2="236.233"><stop offset="0" stop-color="#D77857"/><stop offset="1" stop-color="#F48762"/></linearGradient><circle fill="url(#c)" cx="195.1" cy="241.7" r="5.5"/><path fill="#44443D" d="M136.4 155.1l-14-.1c0-1.5.6-37.1 28-60.4l9.1 10.8c-22.3 19-23.1 49.4-23.1 49.7z"/><linearGradient id="d" gradientUnits="userSpaceOnUse" x1="205.44" y1="247.247" x2="205.44" y2="236.233"><stop offset="0" stop-color="#D77857"/><stop offset="1" stop-color="#F48762"/></linearGradient><circle fill="url(#d)" cx="205.4" cy="241.7" r="5.5"/><path fill="#44443D" d="M132.4 151.9h4.3c-1.6 20-2.7 40-3 60h-1.2c-16.6 0-30-13.4-30-30s13.4-30 29.9-30z"/><path opacity=".4" fill="#E1C59A" d="M214.8 220.8c0-2.9-2.4-5.3-5.3-5.3-.6 0-1.1.1-1.6.3l-2.8-15.8c0-2.8-2.3-5.1-5.1-5.1s-5.1 2.3-5.1 5.1l-2.8 15.8c-.5-.2-1.1-.3-1.6-.3-2.9 0-5.3 2.4-5.3 5.3 0 2.8 2.2 5.1 4.9 5.2.7 4.8 4.9 8.5 9.9 8.5s9.2-3.7 9.9-8.5c2.7-.2 4.9-2.4 4.9-5.2z"/><path fill="#E8D0A9" d="M214.8 219c0-2.9-2.4-5.3-5.3-5.3-.6 0-1.1.1-1.6.3l-2.8-15.8c0-2.8-2.3-5.1-5.1-5.1s-5.1 2.3-5.1 5.1l-2.8 15.8c-.5-.2-1.1-.3-1.6-.3-2.9 0-5.3 2.4-5.3 5.3 0 2.8 2.2 5.1 4.9 5.2.7 4.8 4.9 8.5 9.9 8.5s9.2-3.7 9.9-8.5c2.7-.1 4.9-2.4 4.9-5.2z"/><linearGradient id="e" gradientUnits="userSpaceOnUse" x1="200" y1="193.113" x2="200" y2="232.764"><stop offset=".137" stop-color="#E8D0A9"/><stop offset="1" stop-color="#F48762" stop-opacity=".8"/></linearGradient><path fill="url(#e)" d="M214.8 219c0-2.9-2.4-5.3-5.3-5.3-.6 0-1.1.1-1.6.3l-2.8-15.8c0-2.8-2.3-5.1-5.1-5.1s-5.1 2.3-5.1 5.1l-2.8 15.8c-.5-.2-1.1-.3-1.6-.3-2.9 0-5.3 2.4-5.3 5.3 0 2.8 2.2 5.1 4.9 5.2.7 4.8 4.9 8.5 9.9 8.5s9.2-3.7 9.9-8.5c2.7-.1 4.9-2.4 4.9-5.2z"/><linearGradient id="f" gradientUnits="userSpaceOnUse" x1="200" y1="197.52" x2="200" y2="228.357"><stop offset="0" stop-color="#fff" stop-opacity="0"/><stop offset="1" stop-color="#FBC349"/></linearGradient><path opacity=".3" fill="url(#f)" d="M200 228.4c-2.7 0-5.1-2-5.5-4.8l4.8-25v-.4c0-.4.3-.7.7-.7.4 0 .7.3.7.7v.4l4.8 25c-.4 2.7-2.8 4.8-5.5 4.8z"/><path opacity=".4" fill="#E1C59A" d="M217.1 246.5c-1.2-1.6-3.1-2.6-5.1-2.8-3.9-.4-7.8-.6-11.7-.6-3.9 0-7.8.2-11.7.6-2.1.2-3.9 1.2-5.1 2.8-1.1 1.4-1.5 3.2-1.2 4.9.6 3.4 3.5 5.8 7 5.8h.7c3.4-.3 6.9-.5 10.4-.5 3.4 0 6.9.2 10.4.5h.7c3.5 0 6.4-2.4 7-5.8.2-1.7-.3-3.5-1.4-4.9z"/><path fill="#F48762" d="M217.1 244.7c-1.2-1.6-3.1-2.6-5.1-2.8-3.9-.4-7.8-.6-11.7-.6-3.9 0-7.8.2-11.7.6-2.1.2-3.9 1.2-5.1 2.8-1.1 1.4-1.5 3.2-1.2 4.9.6 3.4 3.5 5.8 7 5.8h.7c3.4-.3 6.9-.5 10.4-.5 3.4 0 6.9.2 10.4.5h.7c3.5 0 6.4-2.4 7-5.8.2-1.7-.3-3.4-1.4-4.9z"/><path opacity=".2" fill="#fff" d="M183.4 280.5c1.2 1.6 3.1 2.6 5.1 2.8 3.9.4 7.8.6 11.7.6 3.9 0 7.8-.2 11.7-.6 2.1-.2 3.9-1.2 5.1-2.8 1.1-1.4 1.5-3.2 1.2-4.9-.6-3.4-3.5-5.8-7-5.8h-.7c-3.4.3-6.9.5-10.4.5-3.4 0-6.9-.2-10.4-.5h-.7c-3.5 0-6.4 2.4-7 5.8-.1 1.7.3 3.4 1.4 4.9z"/><linearGradient id="g" gradientUnits="userSpaceOnUse" x1="200.294" y1="252.187" x2="200.294" y2="245.072"><stop offset="0" stop-color="#fff" stop-opacity=".3"/><stop offset="1" stop-color="#fff" stop-opacity="0"/></linearGradient><path fill="url(#g)" d="M189.8 252.2c-1.8.2-3.4-1-3.7-2.7-.3-1.8 1-3.4 3-3.7 7.5-.9 15-.9 22.4 0 1.9.2 3.2 1.9 3 3.7-.3 1.8-2 3-3.7 2.7-7-.9-14-.9-21 0z"/><path opacity=".3" fill="#E1C59A" d="M275.1 191.2c-2.9-.3-5.5 1.8-5.8 4.7-.1 1.2-3.5 27.4-27.7 34.5-1.9-1.7-4.4-2.9-7.2-3-6.2-.3-11.5 4.6-11.8 10.8s4.6 11.5 10.8 11.8c5.8.2 10.8-3.9 11.6-9.6 14.4-4.4 22.8-14.1 27.4-22.3 6.1-10.6 7.2-20.7 7.3-21.1.3-2.9-1.7-5.5-4.6-5.8z"/><circle fill="#44443D" cx="234.6" cy="242.6" r="11.3"/><path fill="#44443D" d="M267.6 151.9h-4.3c1.6 20 2.6 40 3 60h1.3c16.6 0 30-13.4 30-30s-13.5-30-30-30z"/><g opacity=".5"><circle fill="#5A4A42" cx="178.7" cy="236" r="2.3"/><g stroke="#5A4A42" stroke-width=".661" stroke-linecap="round" stroke-miterlimit="10" fill="none"><path d="M178.7 236s-.6-3-4-5.2M178.7 236s-2.5-2.6-6.1-.9"/></g></g><g fill="#7D5B48"><circle cx="233.7" cy="91.5" r="21.1"/><circle cx="166.3" cy="91.5" r="21.1"/></g><ellipse fill="#7D5B48" cx="132.5" cy="168.9" rx="10.9" ry="10.4"/><ellipse fill="#7D5B48" cx="267.5" cy="168.9" rx="10.9" ry="10.4"/><path fill="#fff" d="M236.9 107.2l-1.7 26.9c0 .4-.2.5-.6.5l-3.6-.2c-.4 0-.6-.2-.5-.6l.6-11.4-2.7-.1-.6 11.4c0 .4-.2.6-.6.5l-3.6-.2c-.4 0-.6-.2-.5-.6l1.1-26.9c0-.4.2-.6.6-.5l3.8.2c.4 0 .6.2.6.6-.2 3.6-.4 7.2-.5 10.8l2.7.1.6-10.8c0-.4.2-.5.6-.5l3.8.2c.3 0 .5.2.5.6zM250.7 138c0 .4-.2.5-.5.5-1.2-.2-2.4-.4-3.6-.7-.2 0-.3-.1-.4-.2-.1-.1-.2-.3-.2-.4l-1.2-10.2-1.8 10.2v-.4c-.1.3-.3.4-.6.3-1.2-.2-2.4-.4-3.5-.6-.4-.1-.5-.3-.5-.6l4.3-26.6c.1-.4.3-.5.7-.5 2.1.3 4.2.7 6.3 1.1.7.1 1.4.4 2 .8.6.4 1.1.8 1.5 1.4.4.5.7 1.1.8 1.8.2.7.2 1.3.1 2l-1.2 6.4c-.2 1-.6 1.8-1.3 2.5-.7.7-1.4 1.2-2.4 1.4l1.5 11.8zm-5.1-16.3l1.3.2c.3 0 .5 0 .7-.2.2-.2.4-.4.4-.6l1.1-6c0-.3 0-.5-.2-.7-.2-.2-.4-.4-.7-.4-.4-.1-.9-.2-1.3-.2-.4 2.6-.8 5.3-1.3 7.9zM154.5 108.1c.7-.1 1.4 0 2.1.2.7.2 1.3.5 1.8 1 .5.4.9.9 1.3 1.5.3.6.5 1.2.6 1.9l1.3 17.9c.1.7 0 1.4-.3 2-.2.6-.5 1.2-1 1.7-.4.5-.9.9-1.5 1.2-.6.3-1.2.5-1.9.6l-6 .5c-.4 0-.6-.1-.6-.5l-2.5-26.8c0-.4.1-.6.5-.6 1.9-.3 4-.5 6.2-.6zm.8 5.2c0-.3-.1-.5-.3-.7-.2-.2-.5-.2-.7-.2l-1.3.1 1.7 19.4 1.3-.1c.3 0 .5-.1.7-.3.2-.2.3-.4.2-.7-.7-5.9-1.2-11.7-1.6-17.5zM172.5 102.2c.7.3 1.2.6 1.7 1.1.5.4.9 1 1.2 1.6.3.6.4 1.3.4 2v1.5c0 .4-.2.6-.5.7l-3.8 1c-.4.1-.5 0-.5-.4v-2.6c0-.3-.1-.5-.3-.7-.2-.2-.4-.3-.7-.3h-.3c-.3 0-.5.1-.7.3-.2.2-.3.4-.3.7l.1 3.6c0 .3.1.5.2.8.1.2.2.4.5.6 1.8 1.3 3.7 2.6 5.5 3.8.4.4.7.7.9 1.1.1.4.2.8.3 1.3 0 2.3 0 4.6.1 6.9 0 .7-.1 1.4-.4 2-.3.6-.6 1.2-1.1 1.6-.5.5-1 .8-1.6 1.1-.6.3-1.3.4-2 .4h-1.5c-.7 0-1.4-.1-2-.4-.6-.3-1.2-.6-1.6-1-.5-.4-.8-1-1.1-1.6-.3-.6-.4-1.3-.5-2 0-1.3-.1-2.6-.1-3.8 0-.4.2-.6.5-.7l3.7-1.1c.4-.1.5 0 .5.4l.1 4.9c0 .3.1.5.3.7.2.2.4.3.7.3h.3c.3 0 .5-.1.7-.3.2-.2.3-.4.3-.7l-.1-5.3c0-.3-.1-.7-.2-.9-.1-.3-.3-.5-.5-.7-1.8-1.3-3.6-2.6-5.4-3.8-.4-.4-.7-.7-.9-1.1-.2-.4-.3-.9-.3-1.5l-.1-4.8c0-.7.1-1.4.4-2 .3-.6.6-1.2 1.1-1.6.5-.5 1-.8 1.7-1.1.6-.3 1.3-.4 2.1-.4h1.6c.2 0 .9.1 1.6.4zM185.9 102c.7 0 1.4.1 2.1.3.7.3 1.2.6 1.7 1s.9 1 1.2 1.6c.3.6.4 1.3.5 2 0 2.2.1 4.4.1 6.5 0 .7-.1 1.4-.4 2-.3.6-.6 1.2-1.1 1.6-.5.5-1 .8-1.6 1.1-.6.3-1.3.4-2 .5-.6 0-1.3 0-1.9.1.1 3.6.2 7.2.3 10.9 0 .4-.2.6-.5.6l-3.6.1c-.4 0-.6-.2-.6-.5l-1.1-26.9c0-.4.2-.6.6-.6 2-.2 4.1-.2 6.3-.3zm.5 5.3c0-.3-.1-.5-.3-.7-.2-.2-.4-.3-.7-.3h-1.3c.1 2.7.2 5.4.2 8.1h1.3c.3 0 .5-.1.7-.3.2-.2.3-.4.3-.7-.1-2-.2-4.1-.2-6.1zM205.7 105.4l-.2 3.6c0 .4-.2.6-.6.5l-3-.1-.9 22.8c0 .4-.2.6-.6.5l-3.6-.1c-.1 0-.3-.1-.4-.2-.1-.1-.2-.2-.2-.4l.7-22.8c-1 0-2-.1-2.9-.1-.4 0-.6-.2-.6-.6l.1-3.6c0-.4.2-.6.6-.5 3.6.1 7.3.2 10.9.4.6.1.8.3.7.6zM217.3 100.6c.7.3 1.2.6 1.7 1s.9 1 1.2 1.6c.3.6.4 1.3.5 2 0 1.1 0 2.1.1 3.2 0 .4-.2.6-.5.7-1.3.2-2.5.4-3.8.7-.4.1-.5 0-.6-.4l-.1-3.9c0-.3-.1-.5-.3-.7-.2-.2-.4-.3-.7-.3h-.3c-.3 0-.5.1-.7.3-.2.2-.3.4-.3.7l.6 18.1c0 .3.1.5.3.7.2.2.4.3.7.3h.3c.3 0 .5-.1.7-.3.2-.2.3-.4.3-.7l-.2-5.6c0-.4.2-.5.5-.4l3.7.4c.4.1.5.3.5.7l.1 5c0 .7-.1 1.4-.4 2-.3.6-.6 1.2-1.1 1.6-.4.5-1 .8-1.6 1.1-.6.3-1.3.4-2 .5h-1.5c-.7 0-1.4-.1-2-.3-.6-.2-1.2-.6-1.6-1-.5-.4-.9-1-1.2-1.6-.3-.6-.5-1.3-.5-1.9l-.8-18.5c0-.7.1-1.4.3-2 .3-.6.6-1.2 1.1-1.6.5-.5 1-.9 1.6-1.1.6-.3 1.3-.4 2.1-.5h1.6c1-.2 1.7-.1 2.3.2z"/><defs><path id="h" d="M154.5 108.1c.7-.1 1.4 0 2.1.2.7.2 1.3.5 1.8 1 .5.4.9.9 1.3 1.5.3.6.5 1.2.6 1.9l1.3 17.9c.1.7 0 1.4-.3 2-.2.6-.5 1.2-1 1.7-.4.5-.9.9-1.5 1.2-.6.3-1.2.5-1.9.6l-6 .5c-.4 0-.6-.1-.6-.5l-2.5-26.8c0-.4.1-.6.5-.6 1.9-.3 4-.5 6.2-.6zm.8 5.2c0-.3-.1-.5-.3-.7-.2-.2-.5-.2-.7-.2l-1.3.1 1.7 19.4 1.3-.1c.3 0 .5-.1.7-.3.2-.2.3-.4.2-.7-.7-5.9-1.2-11.7-1.6-17.5zm17.2-11.1c.7.3 1.2.6 1.7 1.1.5.4.9 1 1.2 1.6.3.6.4 1.3.4 2v1.5c0 .4-.2.6-.5.7l-3.8 1c-.4.1-.5 0-.5-.4v-2.6c0-.3-.1-.5-.3-.7-.2-.2-.4-.3-.7-.3h-.3c-.3 0-.5.1-.7.3-.2.2-.3.4-.3.7l.1 3.6c0 .3.1.5.2.8.1.2.2.4.5.6 1.8 1.3 3.7 2.6 5.5 3.8.4.4.7.7.9 1.1.1.4.2.8.3 1.3 0 2.3 0 4.6.1 6.9 0 .7-.1 1.4-.4 2-.3.6-.6 1.2-1.1 1.6-.5.5-1 .8-1.6 1.1-.6.3-1.3.4-2 .4h-1.5c-.7 0-1.4-.1-2-.4-.6-.3-1.2-.6-1.6-1-.5-.4-.8-1-1.1-1.6-.3-.6-.4-1.3-.5-2 0-1.3-.1-2.6-.1-3.8 0-.4.2-.6.5-.7l3.7-1.1c.4-.1.5 0 .5.4l.1 4.9c0 .3.1.5.3.7.2.2.4.3.7.3h.3c.3 0 .5-.1.7-.3.2-.2.3-.4.3-.7l-.1-5.3c0-.3-.1-.7-.2-.9-.1-.3-.3-.5-.5-.7-1.8-1.3-3.6-2.6-5.4-3.8-.4-.4-.7-.7-.9-1.1-.2-.4-.3-.9-.3-1.5l-.1-4.8c0-.7.1-1.4.4-2 .3-.6.6-1.2 1.1-1.6.5-.5 1-.8 1.7-1.1.6-.3 1.3-.4 2.1-.4h1.6c.2 0 .9.1 1.6.4zm13.4-.2c.7 0 1.4.1 2.1.3.7.3 1.2.6 1.7 1s.9 1 1.2 1.6c.3.6.4 1.3.5 2 0 2.2.1 4.4.1 6.5 0 .7-.1 1.4-.4 2-.3.6-.6 1.2-1.1 1.6-.5.5-1 .8-1.6 1.1-.6.3-1.3.4-2 .5-.6 0-1.3 0-1.9.1.1 3.6.2 7.2.3 10.9 0 .4-.2.6-.5.6l-3.6.1c-.4 0-.6-.2-.6-.5l-1.1-26.9c0-.4.2-.6.6-.6 2-.2 4.1-.2 6.3-.3zm.5 5.3c0-.3-.1-.5-.3-.7-.2-.2-.4-.3-.7-.3h-1.3c.1 2.7.2 5.4.2 8.1h1.3c.3 0 .5-.1.7-.3.2-.2.3-.4.3-.7-.1-2-.2-4.1-.2-6.1zm19.3-1.9l-.2 3.6c0 .4-.2.6-.6.5l-3-.1-.9 22.8c0 .4-.2.6-.6.5l-3.6-.1c-.1 0-.3-.1-.4-.2-.1-.1-.2-.2-.2-.4l.7-22.8c-1 0-2-.1-2.9-.1-.4 0-.6-.2-.6-.6l.1-3.6c0-.4.2-.6.6-.5 3.6.1 7.3.2 10.9.4.6.1.8.3.7.6zm11.6-4.8c.7.3 1.2.6 1.7 1s.9 1 1.2 1.6c.3.6.4 1.3.5 2 0 1.1 0 2.1.1 3.2 0 .4-.2.6-.5.7-1.3.2-2.5.4-3.8.7-.4.1-.5 0-.6-.4l-.1-3.9c0-.3-.1-.5-.3-.7-.2-.2-.4-.3-.7-.3h-.3c-.3 0-.5.1-.7.3-.2.2-.3.4-.3.7l.6 18.1c0 .3.1.5.3.7.2.2.4.3.7.3h.3c.3 0 .5-.1.7-.3.2-.2.3-.4.3-.7l-.2-5.6c0-.4.2-.5.5-.4l3.7.4c.4.1.5.3.5.7l.1 5c0 .7-.1 1.4-.4 2-.3.6-.6 1.2-1.1 1.6-.4.5-1 .8-1.6 1.1-.6.3-1.3.4-2 .5h-1.5c-.7 0-1.4-.1-2-.3-.6-.2-1.2-.6-1.6-1-.5-.4-.9-1-1.2-1.6-.3-.6-.5-1.3-.5-1.9l-.8-18.5c0-.7.1-1.4.3-2 .3-.6.6-1.2 1.1-1.6.5-.5 1-.9 1.6-1.1.6-.3 1.3-.4 2.1-.5h1.6c1-.2 1.7-.1 2.3.2zm19.6 6.6l-1.7 26.9c0 .4-.2.5-.6.5l-3.6-.2c-.4 0-.6-.2-.5-.6l.6-11.4-2.7-.1-.6 11.4c0 .4-.2.6-.6.5l-3.6-.2c-.4 0-.6-.2-.5-.6l1.1-26.9c0-.4.2-.6.6-.5l3.8.2c.4 0 .6.2.6.6-.2 3.6-.4 7.2-.5 10.8l2.7.1.6-10.8c0-.4.2-.5.6-.5l3.8.2c.3 0 .5.2.5.6zm13.8 30c0 .4-.2.5-.5.5-1.2-.2-2.4-.4-3.6-.7-.2 0-.3-.1-.4-.2-.1-.1-.2-.3-.2-.4l-1.2-10.2-1.8 10.2v-.4c-.1.3-.3.4-.6.3-1.2-.2-2.4-.4-3.5-.6-.4-.1-.5-.3-.5-.6l4.3-26.6c.1-.4.3-.5.7-.5 2.1.3 4.2.7 6.3 1.1.7.1 1.4.4 2 .8.6.4 1.1.8 1.5 1.4.4.5.7 1.1.8 1.8.2.7.2 1.3.1 2l-1.2 6.4c-.2 1-.6 1.8-1.3 2.5-.7.7-1.4 1.2-2.4 1.4.5 3.8 1 7.8 1.5 11.8zm-5.1-16.3l1.3.2c.3 0 .5 0 .7-.2.2-.2.4-.4.4-.6l1.1-6c0-.3 0-.5-.2-.7-.2-.2-.4-.4-.7-.4-.4-.1-.9-.2-1.3-.2-.4 2.6-.8 5.2-1.3 7.9z"/></defs><clipPath><use xlink:href="#h" overflow="visible"/></clipPath><g fill="#7D5B48"><circle cx="151.4" cy="146.5" r="13.1"/><circle cx="174.9" cy="136.6" r="10.3"/><circle cx="191.7" cy="136.7" r="10.3"/><circle cx="203.2" cy="141" r="11.5"/><circle cx="212.8" cy="136.3" r="11.5"/><circle cx="223.4" cy="138.9" r="11.5"/><circle cx="247.7" cy="145.9" r="12.5"/></g><path opacity=".75" fill="#7D5B48" d="M239.2 182.7c-1.7-.9-3.6-1.5-5.5-1.9.1-.4.2-.8.2-1.2 0-2.3-1.9-4.2-4.2-4.2-2.3 0-4.2 1.9-4.2 4.2 0 .4.1.8.2 1.2-1.9.4-3.7 1-5.5 1.9-1.2.6-1.6 2-1 3.2.4.8 1.3 1.3 2.1 1.3.4 0 .7-.1 1.1-.3 4.6-2.3 10.1-2.3 14.6 0 1.2.6 2.6.1 3.2-1 .6-1.1.1-2.6-1-3.2zM160.6 182.7c1.7-.9 3.6-1.5 5.5-1.9-.1-.4-.2-.8-.2-1.2 0-2.3 1.9-4.2 4.2-4.2 2.3 0 4.2 1.9 4.2 4.2 0 .4-.1.8-.2 1.2 1.9.4 3.7 1 5.5 1.9 1.2.6 1.6 2 1 3.2-.4.8-1.3 1.3-2.1 1.3-.4 0-.7-.1-1.1-.3-4.6-2.3-10.1-2.3-14.6 0-1.2.6-2.6.1-3.2-1-.6-1.1-.1-2.6 1-3.2z"/><circle fill="#7D5B48" cx="246" cy="160.5" r="4"/><circle fill="#7D5B48" cx="153.6" cy="160.5" r="4"/><path fill="#44443D" d="M234.6 246.4c-2.6 0-4.9-1.9-5.2-4.5-.4-2.9 1.6-5.6 4.5-6 31.5-4.5 34.1-36.2 34.2-37.6.2-2.9 2.7-5.1 5.6-4.9 2.9.2 5.1 2.7 4.9 5.6 0 .4-.8 10.5-6.4 21.4-5.3 10.2-16 23-36.9 26h-.7z"/><linearGradient id="i" gradientUnits="userSpaceOnUse" x1="234.506" y1="220.498" x2="234.506" y2="163.456"><stop offset="0" stop-color="#fff" stop-opacity=".4"/><stop offset="1" stop-color="#fff" stop-opacity=".8"/></linearGradient><path opacity=".8" fill="url(#i)" d="M257.9 212.7c-1 2-2.2 3.8-3.9 5-1.1.8-2.3 1.3-3.6 1.7-8 2.5-16.5.2-24.2-3.2-3.2-1.4-6.5-3.1-9-5.8-5.4-5.5-6.9-14.1-7.8-22.2-.3-2.2-.5-4.5-.7-6.7-.2-2-.4-4.1.1-6 .6-2.2 2-4 3.7-5.3s3.6-2.2 5.6-2.9c5.5-2.1 11.3-3.7 17.1-3.8s11.8 1.1 16.8 4.4c1.1.7 2.3 1.6 3.1 2.7 1.2 1.6 1.7 3.6 2.1 5.6 1.4 6.1 2.1 12.3 2.8 18.5.3 2.5.6 4.9.5 7.4-.1 3.7-1 7.3-2.6 10.6z"/><linearGradient id="j" gradientUnits="userSpaceOnUse" x1="-1868.262" y1="220.498" x2="-1868.262" y2="163.456" gradientTransform="matrix(-1 0 0 1 -1702.671 0)"><stop offset="0" stop-color="#fff" stop-opacity=".4"/><stop offset="1" stop-color="#fff" stop-opacity=".8"/></linearGradient><path opacity=".8" fill="url(#j)" d="M142.2 212.7c1 2 2.2 3.8 3.9 5 1.1.8 2.3 1.3 3.6 1.7 8 2.5 16.5.2 24.2-3.2 3.2-1.4 6.5-3.1 9-5.8 5.4-5.5 6.9-14.1 7.8-22.2.3-2.2.5-4.5.7-6.7.2-2 .4-4.1-.1-6-.6-2.2-2-4-3.7-5.3s-3.6-2.2-5.6-2.9c-5.5-2.1-11.3-3.7-17.1-3.8s-11.8 1.1-16.8 4.4c-1.1.7-2.3 1.6-3.1 2.7-1.2 1.6-1.7 3.6-2.1 5.6-1.4 6.1-2.1 12.3-2.8 18.5-.3 2.5-.6 4.9-.5 7.4.1 3.7 1 7.3 2.6 10.6z"/><path opacity=".5" fill="#E1C59A" d="M241.6 225.2c-1.9 0-3.9-.2-6-.5-9.9-1.5-17.5-6.3-22.6-14-7-10.7-5.9-26.8-4.3-36.1.3-1.9.2-1.8 1.9-1.5 1.7.3 1 3 .7 4.9-.3 1.8-.9 16.9 6.8 28.7 4 6.2 10.2 10 18.4 11.2 8.1 1.3 13.9-.3 17.1-4.8 7.1-9.8 5.6-32.2 2.9-40-.6-1.8-3.7-3.5-2.1-4.2 1.6-.7 3.4.2 4 2 .4 1.3 10.8 31.6.1 46.4-3.7 5.3-9.4 7.9-16.9 7.9zM158.9 225.2c-7.5 0-13.2-2.6-16.9-7.8-10.7-14.8-.3-45.1.1-46.4.6-1.8 2.4-2.7 4-2 1.6.7.1 2.6-.5 4.4-2.7 7.7-5.8 30 1.3 39.8 3.2 4.4 9 6 17.1 4.7 8.1-1.3 14.3-5 18.4-11.2 7.7-11.8 7.4-26.7 7.1-28.5-.3-1.9-1.4-4.7.3-5.1 1.7-.3 2.5.3 2.8 2.2 1.6 9.4 1.8 24.7-5.2 35.5-5.1 7.8-12.7 12.5-22.6 14-2 .3-4 .4-5.9.4z"/><path fill="#F48762" d="M265 169.4c0-2.5-1.9-4.5-4.2-4.5-2.7 0-4.4-.1-5.1-.2-29-16.3-49.4 8.3-49.6 8.5l-.2.3c-3.7-.6-7.4-.6-11.1.1l-.3-.4c-.2-.2-20.6-24.8-49.6-8.5-.7.1-2.4.2-5.1.2-2.3 0-4.2 2-4.2 4.5s1.8 4.6 4.1 4.6h1.1c-.9 3.1-2 7.7-2.8 12.9-2 13.1-.6 22.9 4 29.3 3.7 5.2 9.4 7.8 16.9 7.8 1.9 0 3.9-.2 6-.5 9.9-1.5 17.5-6.3 22.6-14 4.2-6.4 6.1-14.2 6.6-21.4 4.1-1.3 8.4-1.3 12.5-.1.5 7.3 2.4 15.1 6.6 21.5 5.1 7.8 12.7 12.5 22.6 14 2.1.3 4.1.5 6 .5 7.5 0 13.2-2.6 16.9-7.8 4.6-6.4 6-16.2 4-29.3-.8-5.1-1.9-9.7-2.8-12.9h1.1c2.1 0 4-2.1 4-4.6zm-82.6 36c-4 6.2-10.2 10-18.4 11.2-8.1 1.3-13.9-.3-17.1-4.7-6.7-9.3-2.1-29.9.7-38.5.3-.1.6-.2.8-.4 21.2-12.1 36.3 2.3 39.4 5.6.5 5.5.7 17.5-5.4 26.8zm71.3 6.5c-3.2 4.4-9 6-17.1 4.8-8.1-1.3-14.3-5-18.4-11.2-6.1-9.3-5.8-21.2-5.3-26.7 3-3.3 18.3-17.7 39.4-5.6l.8.4c2.7 8.4 7.3 29 .6 38.3zM209.2 176.7c-.1 0-.2 0-.2-.1-.1-.1-.1-.2-.1-.3 0-.1 0-.2.1-.3.1-.1 10.7-12.7 26.9-12.7 6 0 12.1 1.7 18.1 5.1l.6.3.7.1c1 .1 2.8.2 4.9.2h.8c.2 0 .4.2.4.4s-.1.3-.1.3c-.1.1-.2.1-.3.1h-.6c-3.3 0-5.6-.2-6.2-.5-6-3.4-12.2-5.2-18.2-5.2-16.2 0-26.2 12.3-26.3 12.4l-.5.2z"/><path fill="#5A4A42" d="M235.8 163.4c6 0 12 1.7 18.1 5.1l.6.3.6.1c1 .1 2.8.2 4.9.2h.8c.1 0 .2.1.2.3 0 .1 0 .2-.1.2-.1.1-.1.1-.2.1h-.6c-3.3 0-5.6-.2-6.1-.5-6.1-3.5-12.2-5.2-18.3-5.2-16.2 0-26.3 12.3-26.4 12.5 0 0-.1.1-.2.1s-.1 0-.2-.1-.1-.1-.1-.2 0-.2.1-.2c.2-.2 10.8-12.7 26.9-12.7m0-.3c-16.3 0-27 12.7-27 12.8-.1.1-.1.3-.1.4 0 .1 0 .3.2.4.1.1.2.1.3.1.1 0 .3 0 .4-.2.1-.1 10.1-12.4 26.2-12.4 6 0 12.2 1.7 18.2 5.2.8.5 4.3.6 6.3.6h.6c.2 0 .3-.1.4-.2.1-.1.2-.2.2-.4 0-.3-.2-.6-.5-.6h-.8c-2 0-3.9-.1-4.9-.2l-.6-.1-.6-.3c-6.1-3.4-12.3-5.1-18.3-5.1z"/><path fill="#FAC34B" d="M209.2 177.2c-.2 0-.4-.1-.6-.3-.2-.2-.3-.4-.3-.7 0-.3.1-.5.2-.7.1-.1 10.9-12.9 27.3-12.9 6.1 0 12.3 1.7 18.4 5.2l.5.3.6.1c1 .1 2.8.2 4.8.2h.8c.5 0 .9.4.9 1 0 .3-.1.5-.3.7-.2.2-.4.3-.6.3h-.6c-4.5 0-6-.3-6.4-.6-6-3.4-12-5.1-18-5.1-15.9 0-25.8 12.1-25.9 12.2-.3.2-.6.3-.8.3z"/><path fill="#F48762" d="M235.8 162.8c6 0 12.2 1.7 18.3 5.2l.5.3.5.1c1 .1 2.8.2 4.8.2h.8c.4 0 .8.4.8.9 0 .2-.1.5-.2.6-.1.2-.3.2-.5.2h-.6c-4.4 0-5.9-.3-6.4-.6-6-3.4-12.1-5.2-18.1-5.2-15.9 0-25.9 12.1-26 12.3-.1.2-.3.3-.6.3-.2 0-.4-.1-.5-.2-.2-.2-.3-.4-.3-.6 0-.2.1-.5.2-.6.2-.2 11-12.9 27.3-12.9m0-.3c-16.5 0-27.3 12.8-27.4 13-.2.2-.3.5-.3.8 0 .3.1.6.3.8.2.2.4.3.7.3.3 0 .6-.1.8-.4.1-.1 10-12.2 25.8-12.2 6 0 12 1.7 17.9 5.1.7.4 2.9.6 6.5.6h.6c.3 0 .5-.1.7-.3.2-.2.3-.5.3-.8 0-.6-.4-1.1-1-1.1h-.8c-2 0-3.8-.1-4.8-.2l-.5-.1-.5-.3c-6-3.4-12.2-5.2-18.3-5.2zM191.4 176.7c-.1 0-.2 0-.3-.1-1-1.3-10.7-12.5-26.2-12.5-6.1 0-12.3 1.8-18.4 5.2-.6.3-2.8.5-6.1.5h-.7c-.1 0-.2 0-.3-.1-.1-.1-.1-.2-.1-.3 0-.2.2-.4.4-.4h.6c2.2 0 4-.1 5-.2l.6-.1.6-.3c6-3.4 12.1-5.1 18.1-5.1 16.1 0 26.9 12.6 27 12.7.1.1.1.2.1.3 0 .1 0 .2-.1.3 0 0-.1.1-.2.1z"/><path fill="#5A4A42" d="M164.8 163.4c16.1 0 26.7 12.6 26.8 12.7.1.1.1.2.1.2 0 .1 0 .2-.1.2 0 0-.1.1-.2.1s-.1 0-.2-.1c-1.1-1.3-10.7-12.5-26.3-12.5-6.1 0-12.3 1.8-18.4 5.3-.3.2-1.6.5-6 .5h-.7s-.1 0-.2-.1-.1-.1-.1-.2c0-.2.1-.3.2-.3h.6c2.2 0 4.1-.1 5.1-.2l.6-.1.6-.3c6.1-3.5 12.2-5.2 18.2-5.2m0-.3c-6 0-12.1 1.7-18.2 5.1l-.6.3-.6.1c-1 .1-2.9.2-5 .2h-.6c-.3 0-.5.3-.5.6 0 .2.1.3.2.4.1.1.2.2.4.2h.7c2.4 0 5.4-.1 6.2-.6 6.1-3.5 12.2-5.2 18.3-5.2 15.4 0 25 11.1 26.1 12.4.1.2.3.2.4.2.1 0 .2 0 .3-.1.1-.1.2-.3.2-.4 0-.1 0-.3-.1-.4-.3-.2-11-12.8-27.2-12.8z"/><path fill="#FAC34B" d="M191.4 177.2c-.3 0-.5-.1-.7-.3-1-1.3-10.5-12.3-25.8-12.3-6 0-12.1 1.7-18.1 5.2-.7.4-2.8.6-6.3.6h-.7c-.2 0-.5-.1-.6-.3-.2-.2-.3-.4-.3-.7 0-.6.4-1 .9-1h.6c2.1 0 4-.1 5-.2l.5-.1.5-.3c6.1-3.4 12.3-5.2 18.4-5.2 16.4 0 27.2 12.8 27.3 12.9.2.2.2.4.2.7 0 .3-.1.5-.3.7-.2.3-.4.3-.6.3z"/><path fill="#F48762" d="M164.8 162.8c16.3 0 27.1 12.7 27.2 12.9.1.2.2.4.2.6 0 .2-.1.5-.3.6-.1.1-.3.2-.5.2s-.4-.1-.6-.3c-1-1.3-10.6-12.3-25.9-12.3-6 0-12.1 1.7-18.2 5.2-.7.4-2.8.6-6.3.6h-.7c-.2 0-.4-.1-.5-.2-.2-.2-.2-.4-.2-.6 0-.5.3-.9.8-.9h.6c2.1 0 4-.1 5-.2l.5-.1h.1l.5-.3c6-3.5 12.2-5.2 18.3-5.2m0-.3c-6.1 0-12.3 1.7-18.4 5.2l-.5.3-.5.1c-1 .1-2.8.2-5 .2h-.6c-.6 0-1 .5-1 1.1 0 .3.1.6.3.8s.5.3.7.3h.7c5.3 0 6.1-.5 6.4-.6 6-3.4 12.1-5.2 18-5.2 15.2 0 24.7 11 25.7 12.2.2.2.5.4.8.4.3 0 .5-.1.7-.3.2-.2.3-.5.3-.8 0-.3-.1-.6-.3-.8 0 0-10.9-12.9-27.3-12.9z"/></g></svg>