<svg xmlns="http://www.w3.org/2000/svg" viewBox="0 0 400 400" enable-background="new 0 0 400 400"><g><path fill="#616259" d="M286.8 305.3c.4-.8.7-1.7 1-2.6 9.8-29.9-20.3-103.3-24-112-.2-.6-.4-.8-.4-.8l-4.8-6.3s-11.8.2-12.3.3c-.5.1-20.5 11.1-20.5 11.1l-10.1-11.4c-3.5-5.4-9.8-7.8-15.7-6.8-5.9-1-12.2 1.4-15.7 6.8l-10.1 11.4s-20-10.9-20.5-11.1c-.5-.1-12.3-.3-12.3-.3l-4.8 6.3s-.1.3-.4.8c-3.6 8.7-33.8 82.1-24 112 .3.9.6 1.8 1 2.6 1.2 2.4 3 4.5 5.4 6.1 4.4 2.9 9.7 3.3 14.3 1.5-2.7 7.8 1.2 16.4 9 19.5 5.2 2 10.7 1.1 14.9-1.9.6 6.8 5.5 12.6 12.5 14 6.2 1.2 12.3-1.5 15.7-6.4 1.9 6.5 7.9 11.2 14.9 11.2s13-4.7 14.9-11.2c3.4 4.9 9.5 7.6 15.7 6.4 7-1.4 12-7.2 12.5-14 4.2 3 9.7 4 14.9 1.9 7.8-3.1 11.7-11.7 9-19.5 4.6 1.8 9.9 1.4 14.3-1.5 2.6-1.5 4.4-3.6 5.6-6.1-.1.1 0 .1 0 0zM286.8 305.3c.4-.8.7-1.7 1-2.6 9.8-29.9-20.3-103.3-24-112-.2-.6-.4-.8-.4-.8l-4.8-6.3s-11.8.2-12.3.3c-.5.1-20.5 11.1-20.5 11.1l-10.1-11.4c-3.5-5.4-9.8-7.8-15.7-6.8-5.9-1-12.2 1.4-15.7 6.8l-10.1 11.4s-20-10.9-20.5-11.1c-.5-.1-12.3-.3-12.3-.3l-4.8 6.3s-.1.3-.4.8c-3.6 8.7-33.8 82.1-24 112 .3.9.6 1.8 1 2.6 1.2 2.4 3 4.5 5.4 6.1 4.4 2.9 9.7 3.3 14.3 1.5-2.7 7.8 1.2 16.4 9 19.5 5.2 2 10.7 1.1 14.9-1.9.6 6.8 5.5 12.6 12.5 14 6.2 1.2 12.3-1.5 15.7-6.4 1.9 6.5 7.9 11.2 14.9 11.2s13-4.7 14.9-11.2c3.4 4.9 9.5 7.6 15.7 6.4 7-1.4 12-7.2 12.5-14 4.2 3 9.7 4 14.9 1.9 7.8-3.1 11.7-11.7 9-19.5 4.6 1.8 9.9 1.4 14.3-1.5 2.6-1.5 4.4-3.6 5.6-6.1-.1.1 0 .1 0 0z"/><path fill="#E6E7E8" d="M200 151.5c-.5 7 51.4 18.9 49.1 24.8-5.3 14-17.9 23.6-49.5 23.6-29.6 0-42.3-8.5-47.9-21-2.9-6.5 46.3-16.7 45.7-24.8l2.6-2.6z"/><linearGradient id="a" gradientUnits="userSpaceOnUse" x1="199.102" y1="53.379" x2="199.102" y2="197.644"><stop offset=".307" stop-color="#B02D2A"/><stop offset="1" stop-color="#8D201C"/></linearGradient><path fill="url(#a)" d="M260.5 173.9c-.7 23.8-19.7 23.7-43.7 23.7h-35.4c-24 0-42.9.1-43.7-23.7-.9-25.1-3.1-50.2-5.2-75.2-2.1-23.6 18.7-44.4 46.3-45.1 13.5-.2 27.1-.2 40.6 0 27.5.7 48.4 21.6 46.3 45.1-2.1 25.1-4.3 50.1-5.2 75.2z"/><path fill="#E8D0A9" d="M261.7 174c-1.7 23.8-20.2 23.7-44.3 23.7h-35.4c-24.1 0-42.5 2.5-44.3-23.7 20.2-8.2 40.8-17.1 62.2-26.2 21.2 9.1 41.6 18 61.8 26.2z"/><path stroke="#44443D" stroke-width="17.55" stroke-linecap="round" stroke-linejoin="round" stroke-miterlimit="10" d="M231.9 249.6c2.8-8.6 2.5-17.6 1.7-26.7-1.6-12.3-11.6-22.1-23.4-22h-20.2c-11.9 0-21.9 9.7-23.4 22-.8 9.1-1.1 18.2 1.7 26.7" fill="none"/><path fill="#B02D2A" d="M204.5 52.6c0-1.1-.9-2-1.9-2h-4.6c-1.1 0-1.9.9-1.9 2s.9 1.9 1.9 1.9h4.6c1.1.1 1.9-.8 1.9-1.9z"/><path fill="#CE3734" d="M249.2 176.1c-16.4-8-32.7-15.9-49.2-23.9-16.4 8-32.6 15.9-48.9 23.9 0-31.1-3-62.1-5.5-93.1-1.4-16.1 13-30.4 32-31 7.4.5 14.8 1.1 22.2 1.7 7.6-.7 15.3-1.3 22.9-1.7 19 .6 33.4 14.9 32 31-2.5 31-5.5 62-5.5 93.1z"/><path fill="#B02D2A" d="M237.7 142c0 4.5-3.6 8.5-8.1 8.9-19.4 1.7-39 1.7-58.4 0-4.5-.4-8.1-4.5-8.1-8.9v-60.2c0-4.5 3.6-8.5 8.1-8.9 19.4-1.7 39-1.7 58.4 0 4.5.4 8.1 4.5 8.1 8.9v60.2z"/><path fill="#F4F3E3" d="M237.7 140.5c0 4.5-3.6 8.5-8.1 8.9-19.4 1.7-39 1.7-58.4 0-4.5-.4-8.1-4.5-8.1-8.9v-60.2c0-4.5 3.6-8.5 8.1-8.9 19.4-1.7 39-1.7 58.4 0 4.5.4 8.1 4.5 8.1 8.9v60.2z"/><path stroke="#44443D" stroke-width="1.95" stroke-linecap="round" stroke-linejoin="round" stroke-miterlimit="10" d="M171.1 144.8c-2.2-.2-3.9-2.2-3.9-4.3v-60.2c0-2.2 1.8-4.1 3.9-4.3 19.4-1.9 39-1.9 58.4 0 2.2.2 3.9 2.2 3.9 4.3v60.2c0 2.2-1.8 4.1-3.9 4.3-19.4 1.9-38.9 1.9-58.4 0z" fill="none"/><path fill="none" d="M162.8 100.1h74.6v51h-74.6z"/><text transform="translate(172.472 122.291)" fill="#EE4036" font-family="'Franchise-Bold'" font-size="37.05">trkr</text><path fill="#E1C59A" d="M248.5 168.9c-3.6-.5-7.3-1-10.9-1.4-7.1-2.3-17-2.9-24-1.8-9-.4-18.1-.4-27.1 0-7-1.2-16.9-.5-24 1.8-3.6.4-7.3.8-10.9 1.4l1.1 7.6.8-.1c.5 10.5 8.4 18.9 18 18.9 9.5 0 19.7-7.6 25.5-22.1h6.4c5.7 14.5 15.9 22.1 25.5 22.1s17.4-8.4 18-18.9l.8.1c.1-2.5.4-5 .8-7.6z"/><linearGradient id="b" gradientUnits="userSpaceOnUse" x1="172.385" y1="146.645" x2="227.615" y2="201.875"><stop offset=".326" stop-color="#3A3B34"/><stop offset="1" stop-color="#44443D"/></linearGradient><path fill="url(#b)" d="M248.5 167.5c-3.6-.5-7.3-1-10.9-1.4-7.1-2.3-17-2.9-24-1.8-9-.4-18.1-.4-27.1 0-7-1.2-16.9-.5-24 1.8-3.6.4-7.3.8-10.9 1.4l1.1 7.6.8-.1c.5 10.5 8.4 18.9 18 18.9 9.5 0 19.7-7.6 25.5-22.1h6.4c5.7 14.5 15.9 22.1 25.5 22.1s17.4-8.4 18-18.9l.8.1c.1-2.5.4-5 .8-7.6z"/><path opacity=".15" fill="#616259" d="M139.9 180.9c-1.6 5.4-4.7 12.1-6.5 16.8.6-.1 2-.1 2.6-.3 24.3-8.9 49.3-23.5 71.8-36.9l-2-7.9c-2.3-1.3-4.5-2.6-6.7-4-18.5 10.7-37.9 21.5-59.2 32.3z"/><path stroke="#EE4036" stroke-width="15.6" stroke-linecap="round" stroke-linejoin="round" stroke-miterlimit="10" d="M274.4 186.2c-24.7-9-49.6-23.8-74.4-38.7-24.8 14.8-49.8 29.7-74.4 38.7" fill="none"/><path stroke="#CE3734" stroke-width="1.95" stroke-linecap="round" stroke-linejoin="round" stroke-miterlimit="10" d="M274.4 186.2c-24.7-9-49.6-23.8-74.4-38.7-24.8 14.8-49.8 29.7-74.4 38.7" fill="none"/><path opacity=".15" fill="#616259" d="M201.9 218.7c-4.2 0-8.2-2.1-8.7-4.6-1-6.5-1-13 0-19.5.5-2.6 4.5-4.6 8.7-4.6 4.2 0 8.2 2.1 8.7 4.6 1 6.5 1 13 0 19.5-.5 2.5-4.5 4.6-8.7 4.6z"/><linearGradient id="c" gradientUnits="userSpaceOnUse" x1="199.959" y1="183.588" x2="199.959" y2="216.738"><stop offset=".307" stop-color="#E8D0A9"/><stop offset="1" stop-color="#E3905F"/></linearGradient><path fill="url(#c)" d="M200 216.7c-4.2 0-8.2-2.4-8.7-5.3-1-7.5-1-15 0-22.5.5-3 4.5-5.3 8.7-5.3 4.2 0 8.2 2.4 8.7 5.3 1 7.5 1 15 0 22.5-.6 3-4.5 5.3-8.7 5.3z"/><circle opacity=".5" fill="#E1C59A" cx="197.2" cy="212.6" r="1.1"/><circle opacity=".5" fill="#E1C59A" cx="203.9" cy="205.4" r="1.1"/><circle opacity=".5" fill="#E1C59A" cx="193.9" cy="209.5" r="1.1"/><circle opacity=".5" fill="#E1C59A" cx="206.5" cy="200.5" r="1.1"/><circle opacity=".5" fill="#E1C59A" cx="204.4" cy="210.3" r="1.4"/><circle opacity=".5" fill="#E1C59A" cx="194" cy="201.6" r="1.4"/><circle opacity=".5" fill="#E1C59A" cx="200.8" cy="200.8" r="1.4"/><circle opacity=".5" fill="#E1C59A" cx="199.1" cy="207.9" r=".8"/><circle opacity=".5" fill="#E1C59A" cx="201.4" cy="213.7" r=".8"/><circle opacity=".5" fill="#E1C59A" cx="207.3" cy="206.6" r=".8"/><circle opacity=".5" fill="#E1C59A" cx="196.1" cy="204.9" r=".8"/><path stroke="#44443D" stroke-width="1.95" stroke-linecap="round" stroke-linejoin="round" stroke-miterlimit="10" fill="none" d="M175 89.1h51M175 131.9h51"/></g></svg>